<?xml version="1.0" encoding="UTF-8" standalone="no"?><svg xmlns="http://www.w3.org/2000/svg" xmlns:xlink="http://www.w3.org/1999/xlink" contentStyleType="text/css" height="1316px" preserveAspectRatio="none" style="width:797px;height:1316px;background:#FFFFFF;" version="1.1" viewBox="0 0 797 1316" width="797px" zoomAndPan="magnify"><defs/><g><!--MD5=[84718776d214be480e4c259efcb737fc]
class Main--><g id="elem_Main"><rect codeLine="1" fill="#F1F1F1" height="162.0781" id="Main" rx="2.5" ry="2.5" style="stroke:#181818;stroke-width:0.5;" width="232" x="340" y="7"/><ellipse cx="435.75" cy="23" fill="#ADD1B2" rx="11" ry="11" style="stroke:#181818;stroke-width:1.0;"/><path d="M438.7188,28.6406 Q438.1406,28.9375 437.5,29.0781 Q436.8594,29.2344 436.1563,29.2344 Q433.6563,29.2344 432.3281,27.5938 Q431.0156,25.9375 431.0156,22.8125 Q431.0156,19.6875 432.3281,18.0313 Q433.6563,16.375 436.1563,16.375 Q436.8594,16.375 437.5,16.5313 Q438.1563,16.6875 438.7188,16.9844 L438.7188,19.7031 Q438.0938,19.125 437.5,18.8594 Q436.9063,18.5781 436.2813,18.5781 Q434.9375,18.5781 434.25,19.6563 Q433.5625,20.7188 433.5625,22.8125 Q433.5625,24.9063 434.25,25.9844 Q434.9375,27.0469 436.2813,27.0469 Q436.9063,27.0469 437.5,26.7813 Q438.0938,26.5 438.7188,25.9219 L438.7188,28.6406 Z " fill="#000000"/><text fill="#000000" font-family="sans-serif" font-size="14" lengthAdjust="spacing" textLength="32" x="456.25" y="27.8467">Main</text><line style="stroke:#181818;stroke-width:0.5;" x1="341" x2="571" y1="39" y2="39"/><rect fill="none" height="6" style="stroke:#C82930;stroke-width:1.0;" width="6" x="348" y="49.6484"/><text fill="#000000" font-family="sans-serif" font-size="14" lengthAdjust="spacing" textLength="91" x="360" y="55.9951">remod: None</text><rect fill="none" height="6" style="stroke:#C82930;stroke-width:1.0;" width="6" x="348" y="65.9453"/><text fill="#000000" font-family="sans-serif" font-size="14" lengthAdjust="spacing" textLength="57" x="360" y="72.292">G: None</text><rect fill="none" height="6" style="stroke:#C82930;stroke-width:1.0;" width="6" x="348" y="82.2422"/><text fill="#000000" font-family="sans-serif" font-size="14" lengthAdjust="spacing" textLength="145" x="360" y="88.5889">gammaList: List[float]</text><rect fill="none" height="6" style="stroke:#C82930;stroke-width:1.0;" width="6" x="348" y="98.5391"/><text fill="#000000" font-family="sans-serif" font-size="14" lengthAdjust="spacing" textLength="178" x="360" y="104.8857">networkList: List[Network]</text><rect fill="none" height="6" style="stroke:#C82930;stroke-width:1.0;" width="6" x="348" y="114.8359"/><text fill="#000000" font-family="sans-serif" font-size="14" lengthAdjust="spacing" textLength="206" x="360" y="121.1826">shapeAnalysis: ShapeAnalysis</text><line style="stroke:#181818;stroke-width:0.5;" x1="341" x2="571" y1="128.4844" y2="128.4844"/><ellipse cx="351" cy="142.1328" fill="#84BE84" rx="3" ry="3" style="stroke:#038048;stroke-width:1.0;"/><text fill="#000000" font-family="sans-serif" font-size="14" lengthAdjust="spacing" textLength="70" x="360" y="145.4795">run(): void</text><ellipse cx="351" cy="158.4297" fill="#84BE84" rx="3" ry="3" style="stroke:#038048;stroke-width:1.0;"/><text fill="#000000" font-family="sans-serif" font-size="14" lengthAdjust="spacing" textLength="73" x="360" y="161.7764">plot(): void</text></g><!--MD5=[a469ff746a1f81777ab34b7b7cd01ffb]
class ShapeAnalysis--><g id="elem_ShapeAnalysis"><rect codeLine="11" fill="#F1F1F1" height="129.4844" id="ShapeAnalysis" rx="2.5" ry="2.5" style="stroke:#181818;stroke-width:0.5;" width="264" x="324" y="230"/><ellipse cx="402.25" cy="246" fill="#ADD1B2" rx="11" ry="11" style="stroke:#181818;stroke-width:1.0;"/><path d="M405.2188,251.6406 Q404.6406,251.9375 404,252.0781 Q403.3594,252.2344 402.6563,252.2344 Q400.1563,252.2344 398.8281,250.5938 Q397.5156,248.9375 397.5156,245.8125 Q397.5156,242.6875 398.8281,241.0313 Q400.1563,239.375 402.6563,239.375 Q403.3594,239.375 404,239.5313 Q404.6563,239.6875 405.2188,239.9844 L405.2188,242.7031 Q404.5938,242.125 404,241.8594 Q403.4063,241.5781 402.7813,241.5781 Q401.4375,241.5781 400.75,242.6563 Q400.0625,243.7188 400.0625,245.8125 Q400.0625,247.9063 400.75,248.9844 Q401.4375,250.0469 402.7813,250.0469 Q403.4063,250.0469 404,249.7813 Q404.5938,249.5 405.2188,248.9219 L405.2188,251.6406 Z " fill="#000000"/><text fill="#000000" font-family="sans-serif" font-size="14" lengthAdjust="spacing" textLength="99" x="422.75" y="250.8467">ShapeAnalysis</text><line style="stroke:#181818;stroke-width:0.5;" x1="325" x2="587" y1="262" y2="262"/><rect fill="none" height="6" style="stroke:#C82930;stroke-width:1.0;" width="6" x="332" y="272.6484"/><text fill="#000000" font-family="sans-serif" font-size="14" lengthAdjust="spacing" textLength="178" x="344" y="278.9951">networkList: List[Network]</text><rect fill="none" height="6" style="stroke:#C82930;stroke-width:1.0;" width="6" x="332" y="288.9453"/><text fill="#000000" font-family="sans-serif" font-size="14" lengthAdjust="spacing" textLength="98" x="344" y="295.292">cyclesList: List</text><line style="stroke:#181818;stroke-width:0.5;" x1="325" x2="587" y1="302.5938" y2="302.5938"/><ellipse cx="335" cy="316.2422" fill="#84BE84" rx="3" ry="3" style="stroke:#038048;stroke-width:1.0;"/><text fill="#000000" font-family="sans-serif" font-size="14" lengthAdjust="spacing" textLength="70" x="344" y="319.5889">run(): void</text><ellipse cx="335" cy="332.5391" fill="#84BE84" rx="3" ry="3" style="stroke:#038048;stroke-width:1.0;"/><text fill="#000000" font-family="sans-serif" font-size="14" lengthAdjust="spacing" textLength="115" x="344" y="335.8857">getCycles(): void</text><ellipse cx="335" cy="348.8359" fill="#84BE84" rx="3" ry="3" style="stroke:#038048;stroke-width:1.0;"/><text fill="#000000" font-family="sans-serif" font-size="14" lengthAdjust="spacing" textLength="238" x="344" y="352.1826">newCyclesFromBasisCycles(): void</text></g><!--MD5=[ec81f511f4d20a18ef555a8be4cd58b8]
class Network--><g id="elem_Network"><rect codeLine="19" fill="#F1F1F1" height="178.375" id="Network" rx="2.5" ry="2.5" style="stroke:#181818;stroke-width:0.5;" width="222" x="345" y="420"/><ellipse cx="423.25" cy="436" fill="#ADD1B2" rx="11" ry="11" style="stroke:#181818;stroke-width:1.0;"/><path d="M426.2188,441.6406 Q425.6406,441.9375 425,442.0781 Q424.3594,442.2344 423.6563,442.2344 Q421.1563,442.2344 419.8281,440.5938 Q418.5156,438.9375 418.5156,435.8125 Q418.5156,432.6875 419.8281,431.0313 Q421.1563,429.375 423.6563,429.375 Q424.3594,429.375 425,429.5313 Q425.6563,429.6875 426.2188,429.9844 L426.2188,432.7031 Q425.5938,432.125 425,431.8594 Q424.4063,431.5781 423.7813,431.5781 Q422.4375,431.5781 421.75,432.6563 Q421.0625,433.7188 421.0625,435.8125 Q421.0625,437.9063 421.75,438.9844 Q422.4375,440.0469 423.7813,440.0469 Q424.4063,440.0469 425,439.7813 Q425.5938,439.5 426.2188,438.9219 L426.2188,441.6406 Z " fill="#000000"/><text fill="#000000" font-family="sans-serif" font-size="14" lengthAdjust="spacing" textLength="57" x="443.75" y="440.8467">Network</text><line style="stroke:#181818;stroke-width:0.5;" x1="346" x2="566" y1="452" y2="452"/><rect fill="none" height="6" style="stroke:#C82930;stroke-width:1.0;" width="6" x="353" y="462.6484"/><text fill="#000000" font-family="sans-serif" font-size="14" lengthAdjust="spacing" textLength="137" x="365" y="468.9951">ductsList: List[Duct]</text><rect fill="none" height="6" style="stroke:#C82930;stroke-width:1.0;" width="6" x="353" y="478.9453"/><text fill="#000000" font-family="sans-serif" font-size="14" lengthAdjust="spacing" textLength="196" x="365" y="485.292">ductsToBeAdded: List[Duct]</text><rect fill="none" height="6" style="stroke:#C82930;stroke-width:1.0;" width="6" x="353" y="495.2422"/><text fill="#000000" font-family="sans-serif" font-size="14" lengthAdjust="spacing" textLength="62" x="365" y="501.5889">G: Graph</text><rect fill="none" height="6" style="stroke:#C82930;stroke-width:1.0;" width="6" x="353" y="511.5391"/><text fill="#000000" font-family="sans-serif" font-size="14" lengthAdjust="spacing" textLength="89" x="365" y="517.8857">gamma: float</text><line style="stroke:#181818;stroke-width:0.5;" x1="346" x2="566" y1="525.1875" y2="525.1875"/><ellipse cx="356" cy="538.8359" fill="#84BE84" rx="3" ry="3" style="stroke:#038048;stroke-width:1.0;"/><text fill="#000000" font-family="sans-serif" font-size="14" lengthAdjust="spacing" textLength="110" x="365" y="542.1826">generate(): void</text><ellipse cx="356" cy="555.1328" fill="#84BE84" rx="3" ry="3" style="stroke:#038048;stroke-width:1.0;"/><text fill="#000000" font-family="sans-serif" font-size="14" lengthAdjust="spacing" textLength="96" x="365" y="558.4795">update(): void</text><ellipse cx="356" cy="571.4297" fill="#84BE84" rx="3" ry="3" style="stroke:#038048;stroke-width:1.0;"/><text fill="#000000" font-family="sans-serif" font-size="14" lengthAdjust="spacing" textLength="104" x="365" y="574.7764">remodel(): void</text><ellipse cx="356" cy="587.7266" fill="#84BE84" rx="3" ry="3" style="stroke:#038048;stroke-width:1.0;"/><text fill="#000000" font-family="sans-serif" font-size="14" lengthAdjust="spacing" textLength="135" x="365" y="591.0732">turnToGraph(): void</text></g><!--MD5=[850dd027a159e087deba612d610e3670]
class Duct--><g id="elem_Duct"><rect codeLine="30" fill="#F1F1F1" height="129.4844" id="Duct" rx="2.5" ry="2.5" style="stroke:#181818;stroke-width:0.5;" width="148" x="290" y="659"/><ellipse cx="343.25" cy="675" fill="#ADD1B2" rx="11" ry="11" style="stroke:#181818;stroke-width:1.0;"/><path d="M346.2188,680.6406 Q345.6406,680.9375 345,681.0781 Q344.3594,681.2344 343.6563,681.2344 Q341.1563,681.2344 339.8281,679.5938 Q338.5156,677.9375 338.5156,674.8125 Q338.5156,671.6875 339.8281,670.0313 Q341.1563,668.375 343.6563,668.375 Q344.3594,668.375 345,668.5313 Q345.6563,668.6875 346.2188,668.9844 L346.2188,671.7031 Q345.5938,671.125 345,670.8594 Q344.4063,670.5781 343.7813,670.5781 Q342.4375,670.5781 341.75,671.6563 Q341.0625,672.7188 341.0625,674.8125 Q341.0625,676.9063 341.75,677.9844 Q342.4375,679.0469 343.7813,679.0469 Q344.4063,679.0469 345,678.7813 Q345.5938,678.5 346.2188,677.9219 L346.2188,680.6406 Z " fill="#000000"/><text fill="#000000" font-family="sans-serif" font-size="14" lengthAdjust="spacing" textLength="33" x="363.75" y="679.8467">Duct</text><line style="stroke:#181818;stroke-width:0.5;" x1="291" x2="437" y1="691" y2="691"/><rect fill="none" height="6" style="stroke:#C82930;stroke-width:1.0;" width="6" x="298" y="701.6484"/><text fill="#000000" font-family="sans-serif" font-size="14" lengthAdjust="spacing" textLength="122" x="310" y="707.9951">network: Network</text><rect fill="none" height="6" style="stroke:#C82930;stroke-width:1.0;" width="6" x="298" y="717.9453"/><text fill="#000000" font-family="sans-serif" font-size="14" lengthAdjust="spacing" textLength="87" x="310" y="724.292">parent: Duct</text><rect fill="none" height="6" style="stroke:#C82930;stroke-width:1.0;" width="6" x="298" y="734.2422"/><text fill="#000000" font-family="sans-serif" font-size="14" lengthAdjust="spacing" textLength="91" x="310" y="740.5889">tailCurve: List</text><rect fill="none" height="6" style="stroke:#C82930;stroke-width:1.0;" width="6" x="298" y="750.5391"/><text fill="#000000" font-family="sans-serif" font-size="14" lengthAdjust="spacing" textLength="47" x="310" y="756.8857">tip: Tip</text><line style="stroke:#181818;stroke-width:0.5;" x1="291" x2="437" y1="764.1875" y2="764.1875"/><ellipse cx="301" cy="777.8359" fill="#84BE84" rx="3" ry="3" style="stroke:#038048;stroke-width:1.0;"/><text fill="#000000" font-family="sans-serif" font-size="14" lengthAdjust="spacing" textLength="96" x="310" y="781.1826">update(): void</text></g><!--MD5=[287caa0945ba2d24fd1d0702d1f7cc2e]
class Tip--><g id="elem_Tip"><rect codeLine="38" fill="#F1F1F1" height="129.4844" id="Tip" rx="2.5" ry="2.5" style="stroke:#181818;stroke-width:0.5;" width="163" x="203.5" y="865"/><ellipse cx="270.25" cy="881" fill="#ADD1B2" rx="11" ry="11" style="stroke:#181818;stroke-width:1.0;"/><path d="M273.2188,886.6406 Q272.6406,886.9375 272,887.0781 Q271.3594,887.2344 270.6563,887.2344 Q268.1563,887.2344 266.8281,885.5938 Q265.5156,883.9375 265.5156,880.8125 Q265.5156,877.6875 266.8281,876.0313 Q268.1563,874.375 270.6563,874.375 Q271.3594,874.375 272,874.5313 Q272.6563,874.6875 273.2188,874.9844 L273.2188,877.7031 Q272.5938,877.125 272,876.8594 Q271.4063,876.5781 270.7813,876.5781 Q269.4375,876.5781 268.75,877.6563 Q268.0625,878.7188 268.0625,880.8125 Q268.0625,882.9063 268.75,883.9844 Q269.4375,885.0469 270.7813,885.0469 Q271.4063,885.0469 272,884.7813 Q272.5938,884.5 273.2188,883.9219 L273.2188,886.6406 Z " fill="#000000"/><text fill="#000000" font-family="sans-serif" font-size="14" lengthAdjust="spacing" textLength="21" x="290.75" y="885.8467">Tip</text><line style="stroke:#181818;stroke-width:0.5;" x1="204.5" x2="365.5" y1="897" y2="897"/><rect fill="none" height="6" style="stroke:#C82930;stroke-width:1.0;" width="6" x="211.5" y="907.6484"/><text fill="#000000" font-family="sans-serif" font-size="14" lengthAdjust="spacing" textLength="137" x="223.5" y="913.9951">position: Array[float]</text><rect fill="none" height="6" style="stroke:#C82930;stroke-width:1.0;" width="6" x="211.5" y="923.9453"/><text fill="#000000" font-family="sans-serif" font-size="14" lengthAdjust="spacing" textLength="133" x="223.5" y="930.292">velocity: Array[float]</text><rect fill="none" height="6" style="stroke:#C82930;stroke-width:1.0;" width="6" x="211.5" y="940.2422"/><text fill="#000000" font-family="sans-serif" font-size="14" lengthAdjust="spacing" textLength="81" x="223.5" y="946.5889">isAlive: bool</text><rect fill="none" height="6" style="stroke:#C82930;stroke-width:1.0;" width="6" x="211.5" y="956.5391"/><text fill="#000000" font-family="sans-serif" font-size="14" lengthAdjust="spacing" textLength="131" x="223.5" y="962.8857">collisionData: tuple</text><line style="stroke:#181818;stroke-width:0.5;" x1="204.5" x2="365.5" y1="970.1875" y2="970.1875"/><ellipse cx="214.5" cy="983.8359" fill="#84BE84" rx="3" ry="3" style="stroke:#038048;stroke-width:1.0;"/><text fill="#000000" font-family="sans-serif" font-size="14" lengthAdjust="spacing" textLength="96" x="223.5" y="987.1826">update(): void</text></g><!--MD5=[44ebbaba1f54307fa3dfc99e2345b43c]
class Remodel--><g id="elem_Remodel"><rect codeLine="46" fill="#F1F1F1" height="129.4844" id="Remodel" rx="2.5" ry="2.5" style="stroke:#181818;stroke-width:0.5;" width="151" x="504.5" y="659"/><ellipse cx="545.15" cy="675" fill="#ADD1B2" rx="11" ry="11" style="stroke:#181818;stroke-width:1.0;"/><path d="M548.1188,680.6406 Q547.5406,680.9375 546.9,681.0781 Q546.2594,681.2344 545.5563,681.2344 Q543.0563,681.2344 541.7281,679.5938 Q540.4156,677.9375 540.4156,674.8125 Q540.4156,671.6875 541.7281,670.0313 Q543.0563,668.375 545.5563,668.375 Q546.2594,668.375 546.9,668.5313 Q547.5563,668.6875 548.1188,668.9844 L548.1188,671.7031 Q547.4938,671.125 546.9,670.8594 Q546.3063,670.5781 545.6813,670.5781 Q544.3375,670.5781 543.65,671.6563 Q542.9625,672.7188 542.9625,674.8125 Q542.9625,676.9063 543.65,677.9844 Q544.3375,679.0469 545.6813,679.0469 Q546.3063,679.0469 546.9,678.7813 Q547.4938,678.5 548.1188,677.9219 L548.1188,680.6406 Z " fill="#000000"/><text fill="#000000" font-family="sans-serif" font-size="14" lengthAdjust="spacing" textLength="62" x="564.85" y="679.8467">Remodel</text><line style="stroke:#181818;stroke-width:0.5;" x1="505.5" x2="654.5" y1="691" y2="691"/><rect fill="none" height="6" style="stroke:#C82930;stroke-width:1.0;" width="6" x="512.5" y="701.6484"/><text fill="#000000" font-family="sans-serif" font-size="14" lengthAdjust="spacing" textLength="62" x="524.5" y="707.9951">G: Graph</text><rect fill="none" height="6" style="stroke:#C82930;stroke-width:1.0;" width="6" x="512.5" y="717.9453"/><text fill="#000000" font-family="sans-serif" font-size="14" lengthAdjust="spacing" textLength="105" x="524.5" y="724.292">sinkNodes: List</text><rect fill="none" height="6" style="stroke:#C82930;stroke-width:1.0;" width="6" x="512.5" y="734.2422"/><text fill="#000000" font-family="sans-serif" font-size="14" lengthAdjust="spacing" textLength="125" x="524.5" y="740.5889">sourceNodes: List</text><rect fill="none" height="6" style="stroke:#C82930;stroke-width:1.0;" width="6" x="512.5" y="750.5391"/><text fill="#000000" font-family="sans-serif" font-size="14" lengthAdjust="spacing" textLength="89" x="524.5" y="756.8857">gamma: float</text><line style="stroke:#181818;stroke-width:0.5;" x1="505.5" x2="654.5" y1="764.1875" y2="764.1875"/><ellipse cx="515.5" cy="777.8359" fill="#84BE84" rx="3" ry="3" style="stroke:#038048;stroke-width:1.0;"/><text fill="#000000" font-family="sans-serif" font-size="14" lengthAdjust="spacing" textLength="104" x="524.5" y="781.1826">remodel(): void</text></g><!--MD5=[00af5b09853459cf47b30133b0e88bdb]
class MovementModels--><g id="elem_MovementModels"><rect codeLine="54" fill="#F1F1F1" height="80.5938" id="MovementModels" rx="2.5" ry="2.5" style="stroke:#181818;stroke-width:0.5;" width="556" x="7" y="1071"/><ellipse cx="219.25" cy="1087" fill="#ADD1B2" rx="11" ry="11" style="stroke:#181818;stroke-width:1.0;"/><path d="M222.2188,1092.6406 Q221.6406,1092.9375 221,1093.0781 Q220.3594,1093.2344 219.6563,1093.2344 Q217.1563,1093.2344 215.8281,1091.5938 Q214.5156,1089.9375 214.5156,1086.8125 Q214.5156,1083.6875 215.8281,1082.0313 Q217.1563,1080.375 219.6563,1080.375 Q220.3594,1080.375 221,1080.5313 Q221.6563,1080.6875 222.2188,1080.9844 L222.2188,1083.7031 Q221.5938,1083.125 221,1082.8594 Q220.4063,1082.5781 219.7813,1082.5781 Q218.4375,1082.5781 217.75,1083.6563 Q217.0625,1084.7188 217.0625,1086.8125 Q217.0625,1088.9063 217.75,1089.9844 Q218.4375,1091.0469 219.7813,1091.0469 Q220.4063,1091.0469 221,1090.7813 Q221.5938,1090.5 222.2188,1089.9219 L222.2188,1092.6406 Z " fill="#000000"/><text fill="#000000" font-family="sans-serif" font-size="14" lengthAdjust="spacing" textLength="123" x="239.75" y="1091.8467">MovementModels</text><line style="stroke:#181818;stroke-width:0.5;" x1="8" x2="562" y1="1103" y2="1103"/><line style="stroke:#181818;stroke-width:0.5;" x1="8" x2="562" y1="1111" y2="1111"/><ellipse cx="18" cy="1124.6484" fill="#84BE84" rx="3" ry="3" style="stroke:#038048;stroke-width:1.0;"/><text fill="#000000" font-family="sans-serif" font-size="14" lengthAdjust="spacing" textLength="505" x="27" y="1127.9951">angleMove(position: Array[float], velocity: Array[float], dt: float): Array[float]</text><ellipse cx="18" cy="1140.9453" fill="#84BE84" rx="3" ry="3" style="stroke:#038048;stroke-width:1.0;"/><text fill="#000000" font-family="sans-serif" font-size="14" lengthAdjust="spacing" textLength="530" x="27" y="1144.292">cartesianMove(position: Array[float], velocity: Array[float], dt: float): Array[float]</text></g><!--MD5=[60c9ed31c535bee25c55ce21b5b01399]
class Data--><g id="elem_Data"><rect codeLine="59" fill="#F1F1F1" height="80.5938" id="Data" rx="2.5" ry="2.5" style="stroke:#181818;stroke-width:0.5;" width="175" x="197.5" y="1229"/><ellipse cx="264.75" cy="1245" fill="#ADD1B2" rx="11" ry="11" style="stroke:#181818;stroke-width:1.0;"/><path d="M267.7188,1250.6406 Q267.1406,1250.9375 266.5,1251.0781 Q265.8594,1251.2344 265.1563,1251.2344 Q262.6563,1251.2344 261.3281,1249.5938 Q260.0156,1247.9375 260.0156,1244.8125 Q260.0156,1241.6875 261.3281,1240.0313 Q262.6563,1238.375 265.1563,1238.375 Q265.8594,1238.375 266.5,1238.5313 Q267.1563,1238.6875 267.7188,1238.9844 L267.7188,1241.7031 Q267.0938,1241.125 266.5,1240.8594 Q265.9063,1240.5781 265.2813,1240.5781 Q263.9375,1240.5781 263.25,1241.6563 Q262.5625,1242.7188 262.5625,1244.8125 Q262.5625,1246.9063 263.25,1247.9844 Q263.9375,1249.0469 265.2813,1249.0469 Q265.9063,1249.0469 266.5,1248.7813 Q267.0938,1248.5 267.7188,1247.9219 L267.7188,1250.6406 Z " fill="#000000"/><text fill="#000000" font-family="sans-serif" font-size="14" lengthAdjust="spacing" textLength="32" x="285.25" y="1249.8467">Data</text><line style="stroke:#181818;stroke-width:0.5;" x1="198.5" x2="371.5" y1="1261" y2="1261"/><rect fill="none" height="6" style="stroke:#C82930;stroke-width:1.0;" width="6" x="205.5" y="1271.6484"/><text fill="#000000" font-family="sans-serif" font-size="14" lengthAdjust="spacing" textLength="106" x="217.5" y="1277.9951">tumorRad: float</text><rect fill="none" height="6" style="stroke:#C82930;stroke-width:1.0;" width="6" x="205.5" y="1287.9453"/><text fill="#000000" font-family="sans-serif" font-size="14" lengthAdjust="spacing" textLength="149" x="217.5" y="1294.292">tumorPos: Array[float]</text><line style="stroke:#181818;stroke-width:0.5;" x1="198.5" x2="371.5" y1="1301.5938" y2="1301.5938"/></g><!--MD5=[f8d2b21678b6ea5d90e779ee6463ca37]
class Utils--><g id="elem_Utils"><rect codeLine="64" fill="#F1F1F1" height="80.5938" id="Utils" rx="2.5" ry="2.5" style="stroke:#181818;stroke-width:0.5;" width="389" x="401.5" y="889"/><ellipse cx="577.25" cy="905" fill="#ADD1B2" rx="11" ry="11" style="stroke:#181818;stroke-width:1.0;"/><path d="M580.2188,910.6406 Q579.6406,910.9375 579,911.0781 Q578.3594,911.2344 577.6563,911.2344 Q575.1563,911.2344 573.8281,909.5938 Q572.5156,907.9375 572.5156,904.8125 Q572.5156,901.6875 573.8281,900.0313 Q575.1563,898.375 577.6563,898.375 Q578.3594,898.375 579,898.5313 Q579.6563,898.6875 580.2188,898.9844 L580.2188,901.7031 Q579.5938,901.125 579,900.8594 Q578.4063,900.5781 577.7813,900.5781 Q576.4375,900.5781 575.75,901.6563 Q575.0625,902.7188 575.0625,904.8125 Q575.0625,906.9063 575.75,907.9844 Q576.4375,909.0469 577.7813,909.0469 Q578.4063,909.0469 579,908.7813 Q579.5938,908.5 580.2188,907.9219 L580.2188,910.6406 Z " fill="#000000"/><text fill="#000000" font-family="sans-serif" font-size="14" lengthAdjust="spacing" textLength="29" x="597.75" y="909.8467">Utils</text><line style="stroke:#181818;stroke-width:0.5;" x1="402.5" x2="789.5" y1="921" y2="921"/><line style="stroke:#181818;stroke-width:0.5;" x1="402.5" x2="789.5" y1="929" y2="929"/><ellipse cx="412.5" cy="942.6484" fill="#84BE84" rx="3" ry="3" style="stroke:#038048;stroke-width:1.0;"/><text fill="#000000" font-family="sans-serif" font-size="14" lengthAdjust="spacing" textLength="254" x="421.5" y="945.9951">rotMat(theta: float): Array[Array[float]]</text><ellipse cx="412.5" cy="958.9453" fill="#84BE84" rx="3" ry="3" style="stroke:#038048;stroke-width:1.0;"/><text fill="#000000" font-family="sans-serif" font-size="14" lengthAdjust="spacing" textLength="363" x="421.5" y="962.292">calculate_curve_length(points: List[Array[float]]): float</text></g><!--MD5=[a2e9d9cb957718cba4b498ad30ba4088]
link Main to ShapeAnalysis--><g id="link_Main_ShapeAnalysis"><path codeLine="69" d="M456,169.24 C456,187.49 456,206.73 456,224.47 " fill="none" id="Main-to-ShapeAnalysis" style="stroke:#181818;stroke-width:1.0;"/><polygon fill="#181818" points="456,229.92,460,220.92,456,224.92,452,220.92,456,229.92" style="stroke:#181818;stroke-width:1.0;"/></g><!--MD5=[ef0f95b9960a131b7b58ccfc55992a8f]
link ShapeAnalysis to Network--><g id="link_ShapeAnalysis_Network"><path codeLine="70" d="M456,359.26 C456,376.69 456,395.95 456,414.67 " fill="none" id="ShapeAnalysis-to-Network" style="stroke:#181818;stroke-width:1.0;"/><polygon fill="#181818" points="456,419.93,460,410.93,456,414.93,452,410.93,456,419.93" style="stroke:#181818;stroke-width:1.0;"/></g><!--MD5=[89e8aa3741919895a83777925de7316a]
link Network to Duct--><g id="link_Network_Duct"><path codeLine="71" d="M417.78,598.27 C409.75,616.83 401.39,636.13 393.73,653.84 " fill="none" id="Network-to-Duct" style="stroke:#181818;stroke-width:1.0;"/><polygon fill="#181818" points="391.58,658.79,398.8194,652.1123,393.5616,654.1995,391.4745,648.9417,391.58,658.79" style="stroke:#181818;stroke-width:1.0;"/></g><!--MD5=[02bac489abd56f44a4021190e20f480b]
link Duct to Tip--><g id="link_Duct_Tip"><path codeLine="72" d="M339.33,788.21 C330.5,811.02 320.5,836.82 311.52,860.02 " fill="none" id="Duct-to-Tip" style="stroke:#181818;stroke-width:1.0;"/><polygon fill="#181818" points="309.62,864.92,316.5885,857.9601,311.4178,860.2544,309.1235,855.0837,309.62,864.92" style="stroke:#181818;stroke-width:1.0;"/></g><!--MD5=[7b54c0800a157af0bd26dda92e8e4586]
link Network to Remodel--><g id="link_Network_Remodel"><path codeLine="73" d="M507.51,598.27 C518.43,616.98 529.79,636.46 540.2,654.29 " fill="none" id="Network-to-Remodel" style="stroke:#181818;stroke-width:1.0;"/><polygon fill="#181818" points="542.82,658.79,541.7443,649.0001,540.3024,654.4701,534.8324,653.0282,542.82,658.79" style="stroke:#181818;stroke-width:1.0;"/></g><!--MD5=[323b4501bd11af4011d382df9b1fa4c6]
link Tip to MovementModels--><g id="link_Tip_MovementModels"><path codeLine="74" d="M285,994.21 C285,1017.9 285,1044.25 285,1065.87 " fill="none" id="Tip-to-MovementModels" style="stroke:#181818;stroke-width:1.0;stroke-dasharray:7.0,7.0;"/><polygon fill="#181818" points="285,1070.98,289,1061.98,285,1065.98,281,1061.98,285,1070.98" style="stroke:#181818;stroke-width:1.0;"/><text fill="#000000" font-family="sans-serif" font-size="13" lengthAdjust="spacing" textLength="30" x="286" y="1037.0669">uses</text></g><!--MD5=[1a8f3a737e1b7dcf8718f1a3a34aa785]
link Remodel to Utils--><g id="link_Remodel_Utils"><path codeLine="75" d="M585,788.21 C587.43,819.24 590.3,855.81 592.5,883.83 " fill="none" id="Remodel-to-Utils" style="stroke:#181818;stroke-width:1.0;stroke-dasharray:7.0,7.0;"/><polygon fill="#181818" points="592.9,888.96,596.1939,879.6783,592.5143,883.9749,588.2177,880.2953,592.9,888.96" style="stroke:#181818;stroke-width:1.0;"/><text fill="#000000" font-family="sans-serif" font-size="13" lengthAdjust="spacing" textLength="30" x="590" y="831.0669">uses</text></g><!--MD5=[954d22c1121998ddeee792c1209316bd]
link MovementModels to Data--><g id="link_MovementModels_Data"><path codeLine="76" d="M285,1152.27 C285,1174.09 285,1201.21 285,1223.77 " fill="none" id="MovementModels-to-Data" style="stroke:#181818;stroke-width:1.0;stroke-dasharray:7.0,7.0;"/><polygon fill="#181818" points="285,1228.8,289,1219.8,285,1223.8,281,1219.8,285,1228.8" style="stroke:#181818;stroke-width:1.0;"/><text fill="#000000" font-family="sans-serif" font-size="13" lengthAdjust="spacing" textLength="30" x="286" y="1195.0669">uses</text></g><!--MD5=[43b4fc806db348bf63cd703cb02088a2]
@startuml
class Main {
    - remod: None
    - G: None
    - gammaList: List[float]
    - networkList: List[Network]
    - shapeAnalysis: ShapeAnalysis
    + run(): void
    + plot(): void
}

class ShapeAnalysis {
    - networkList: List[Network]
    - cyclesList: List
    + run(): void
    + getCycles(): void
    + newCyclesFromBasisCycles(): void
}

class Network {
    - ductsList: List[Duct]
    - ductsToBeAdded: List[Duct]
    - G: Graph
    - gamma: float
    + generate(): void
    + update(): void
    + remodel(): void
    + turnToGraph(): void
}

class Duct {
    - network: Network
    - parent: Duct
    - tailCurve: List
    - tip: Tip
    + update(): void
}

class Tip {
    - position: Array[float]
    - velocity: Array[float]
    - isAlive: bool
    - collisionData: tuple
    + update(): void
}

class Remodel {
    - G: Graph
    - sinkNodes: List
    - sourceNodes: List
    - gamma: float
    + remodel(): void
}

class MovementModels {
    + angleMove(position: Array[float], velocity: Array[float], dt: float): Array[float]
    + cartesianMove(position: Array[float], velocity: Array[float], dt: float): Array[float]
}

class Data {
    - tumorRad: float
    - tumorPos: Array[float]
}

class Utils {
    + rotMat(theta: float): Array[Array[float]]
    + calculate_curve_length(points: List[Array[float]]): float
}

Main - -> ShapeAnalysis
ShapeAnalysis - -> Network
Network - -> Duct
Duct - -> Tip
Network - -> Remodel
Tip ..> MovementModels : uses
Remodel ..> Utils : uses
MovementModels ..> Data : uses
@enduml

PlantUML version 1.2022.7(Mon Aug 22 17:01:30 UTC 2022)
(GPL source distribution)
Java Runtime: OpenJDK Runtime Environment
JVM: OpenJDK 64-Bit Server VM
Default Encoding: UTF-8
Language: en
Country: null
--></g></svg>