<svg xmlns="http://www.w3.org/2000/svg" xmlns:xlink="http://www.w3.org/1999/xlink" xmlns:lucid="lucid" width="1357" height="985.41"><g transform="translate(-2452.8333333259657 75.74403620099511)" lucid:page-tab-id="0_0"><path d="M2453.33 254.18a6 6 0 0 1 6-6h1344a6 6 0 0 1 6 6v524.9a6 6 0 0 1-6 6h-1344a6 6 0 0 1-6-6z" fill="#fff" fill-opacity="0"/><path d="M2479.24 248.18h19.92m9.95 0h19.92m9.96 0h19.9m9.96 0h19.92m9.95 0h19.92m9.96 0h19.9m9.96 0h19.92m9.95 0h19.92m9.96 0h19.9m9.96 0h19.92m9.95 0h19.92m9.96 0h19.9m9.96 0h19.92m9.95 0h19.92m9.96 0h19.9m9.96 0h19.92m9.95 0h19.92m9.96 0h19.9m9.96 0h19.92m9.95 0h19.92m9.96 0h19.9m9.96 0h19.92m9.95 0h19.92m9.96 0h19.9m9.96 0h19.92m9.95 0h19.92m9.96 0h19.9m9.96 0h19.92m9.95 0h19.92m9.96 0h19.9m9.96 0h19.92m9.95 0h19.92m9.96 0h19.9m9.96 0h19.92m9.95 0h19.92m9.96 0h19.9m9.96 0h19.92m9.95 0h19.92m9.96 0h19.9m9.96 0h19.92m9.95 0h19.92m9.96 0h19.9m9.96 0h19.92m9.95 0h19.92m9.96 0h9.95l.94.07.92.22.86.37.8.5.72.6.6.7.5.82.36.87.22.9.07.95v10.3m0 10.3v20.57m0 10.3v20.58m0 10.3v20.58m0 10.3v20.58m0 10.3v20.58m0 10.3v20.58m0 10.3v20.57m0 10.3v20.6m0 10.28v20.6m0 10.28v20.6m0 10.28v20.58m0 10.3V635m0 10.3v20.58m0 10.3v20.57m0 10.3v20.58m0 10.3v20.58m0 10.3v10.3l-.07.93-.22.92-.36.87-.5.8-.6.7-.72.63-.8.5-.87.35-.93.22-.94.07h-9.95m-9.96 0h-19.9m-9.96 0h-19.92m-9.95 0h-19.92m-9.96 0h-19.9m-9.96 0h-19.92m-9.95 0h-19.92m-9.96 0h-19.9m-9.96 0h-19.92m-9.95 0h-19.92m-9.96 0h-19.9m-9.96 0h-19.92m-9.95 0h-19.92m-9.96 0h-19.9m-9.96 0h-19.92m-9.95 0h-19.92m-9.96 0h-19.9m-9.96 0h-19.92m-9.95 0h-19.92m-9.96 0h-19.9m-9.96 0h-19.92m-9.95 0h-19.92m-9.96 0h-19.9m-9.96 0h-19.92m-9.95 0h-19.92m-9.96 0h-19.9m-9.96 0h-19.92m-9.95 0h-19.92m-9.96 0h-19.9m-9.96 0h-19.92m-9.95 0h-19.92m-9.96 0h-19.9m-9.96 0h-19.92m-9.95 0h-19.92m-9.96 0h-19.9m-9.96 0h-19.92m-9.95 0h-19.92m-9.96 0h-19.9m-9.96 0h-19.92m-9.95 0h-19.92m-9.96 0h-19.9m-9.96 0h-19.92m-9.95 0h-19.92m-9.96 0h-19.9m-9.96 0h-19.92m-9.95 0h-9.97l-.93-.08-.92-.22-.87-.36-.8-.5-.7-.6-.62-.72-.5-.8-.35-.87-.22-.92-.07-.94v-10.3m0-10.3v-20.58m0-10.3v-20.58m0-10.3v-20.57m0-10.3V645.3m0-10.3v-20.6m0-10.28v-20.58m0-10.3v-20.58m0-10.3V521.8m0-10.3v-20.57m0-10.3v-20.57m0-10.3v-20.58m0-10.3v-20.58m0-10.3V367.4m0-10.3v-20.58m0-10.3v-20.58m0-10.3v-20.57m0-10.3v-10.3l.08-.93.23-.9.36-.88.48-.8.6-.72.73-.6.8-.5.88-.37.9-.22.95-.07h9.96" stroke="#cc4e00" fill="none"/><path d="M2453.33-69.24a6 6 0 0 1 6-6h1344a6 6 0 0 1 6 6v266.66a6 6 0 0 1-6 6h-1344a6 6 0 0 1-6-6z" fill="#fff" fill-opacity="0"/><path d="M2479.24-75.24h19.92m9.95 0h19.92m9.96 0h19.9m9.96 0h19.92m9.95 0h19.92m9.96 0h19.9m9.96 0h19.92m9.95 0h19.92m9.96 0h19.9m9.96 0h19.92m9.95 0h19.92m9.96 0h19.9m9.96 0h19.92m9.95 0h19.92m9.96 0h19.9m9.96 0h19.92m9.95 0h19.92m9.96 0h19.9m9.96 0h19.92m9.95 0h19.92m9.96 0h19.9m9.96 0h19.92m9.95 0h19.92m9.96 0h19.9m9.96 0h19.92m9.95 0h19.92m9.96 0h19.9m9.96 0h19.92m9.95 0h19.92m9.96 0h19.9m9.96 0h19.92m9.95 0h19.92m9.96 0h19.9m9.96 0h19.92m9.95 0h19.92m9.96 0h19.9m9.96 0h19.92m9.95 0h19.92m9.96 0h19.9m9.96 0h19.92m9.95 0h19.92m9.96 0h19.9m9.96 0h19.92m9.95 0h19.92m9.96 0h9.95l.94.07.92.22.86.36.8.5.72.6.6.73.5.8.36.87.22.92.07.94v9.87m0 9.88v19.76m0 9.88V-.1m0 9.87v19.75m0 9.88v19.75m0 9.88v19.75m0 9.88v19.75m0 9.9v19.74m0 9.88v19.75m0 9.88v9.87l-.07.94-.22.92-.36.87-.5.8-.6.72-.72.6-.8.5-.87.36-.93.22-.94.07h-9.95m-9.96 0h-19.9m-9.96 0h-19.92m-9.95 0h-19.92m-9.96 0h-19.9m-9.96 0h-19.92m-9.95 0h-19.92m-9.96 0h-19.9m-9.96 0h-19.92m-9.95 0h-19.92m-9.96 0h-19.9m-9.96 0h-19.92m-9.95 0h-19.92m-9.96 0h-19.9m-9.96 0h-19.92m-9.95 0h-19.92m-9.96 0h-19.9m-9.96 0h-19.92m-9.95 0h-19.92m-9.96 0h-19.9m-9.96 0h-19.92m-9.95 0h-19.92m-9.96 0h-19.9m-9.96 0h-19.92m-9.95 0h-19.92m-9.96 0h-19.9m-9.96 0h-19.92m-9.95 0h-19.92m-9.96 0h-19.9m-9.96 0h-19.92m-9.95 0h-19.92m-9.96 0h-19.9m-9.96 0h-19.92m-9.95 0h-19.92m-9.96 0h-19.9m-9.96 0h-19.92m-9.95 0h-19.92m-9.96 0h-19.9m-9.96 0h-19.92m-9.95 0h-19.92m-9.96 0h-19.9m-9.96 0h-19.92m-9.95 0h-19.92m-9.96 0h-19.9m-9.96 0h-19.92m-9.95 0h-9.97l-.93-.07-.92-.22-.87-.36-.8-.5-.7-.6-.62-.72-.5-.8-.35-.87-.22-.92-.07-.94v-9.87m0-9.88v-19.75m0-9.88V128.3m0-9.9V98.67m0-9.88V69.03m0-9.88V39.4m0-9.88V9.77m0-9.88v-19.76m0-9.88V-49.5m0-9.87v-9.87l.08-.94.23-.92.36-.87.48-.8.6-.72.73-.6.8-.5.88-.35.9-.22.95-.07h9.96" stroke="#008a0e" fill="none"/><path d="M3466 879a6 6 0 0 1 6-6h5.35a6 6 0 0 1 6 6v24.67a6 6 0 0 1-6 6H3472a6 6 0 0 1-6-6z" fill="#fff" fill-opacity="0"/><use xlink:href="#a" transform="matrix(1,0,0,1,3471,878) translate(0.3271604938271606 19.46527777777778)"/><path d="M2508 66.1a6 6 0 0 1 6-6h209.33a6 6 0 0 1 6 6v64a6 6 0 0 1-6 6H2514a6 6 0 0 1-6-6z" stroke="#282c33" fill="#fff"/><use xlink:href="#b" transform="matrix(1,0,0,1,2520,72.08920103312566) translate(9.092592592592595 21.09027777777778)"/><use xlink:href="#c" transform="matrix(1,0,0,1,2520,72.08920103312566) translate(90.38888888888889 21.09027777777778)"/><use xlink:href="#d" transform="matrix(1,0,0,1,2520,72.08920103312566) translate(18.228395061728406 47.75694444444444)"/><use xlink:href="#e" transform="matrix(1,0,0,1,2520,72.08920103312566) translate(42.91975308641976 47.75694444444444)"/><use xlink:href="#f" transform="matrix(1,0,0,1,2520,72.08920103312566) translate(79.9567901234568 47.75694444444444)"/><path d="M2822.33-37.73a6 6 0 0 1 6-6h536a6 6 0 0 1 6 6V14.1a6 6 0 0 1-6 6h-536a6 6 0 0 1-6-6z" stroke="#282c33" fill="#fff"/><use xlink:href="#g" transform="matrix(1,0,0,1,2834.333402083498,-31.73220469927452) translate(95.33950617283949 17.77777777777778)"/><use xlink:href="#h" transform="matrix(1,0,0,1,2834.333402083498,-31.73220469927452) translate(232.06790123456787 17.77777777777778)"/><use xlink:href="#i" transform="matrix(1,0,0,1,2834.333402083498,-31.73220469927452) translate(355.7716049382716 17.77777777777778)"/><use xlink:href="#j" transform="matrix(1,0,0,1,2834.333402083498,-31.73220469927452) translate(151.6358024691358 44.44444444444444)"/><use xlink:href="#k" transform="matrix(1,0,0,1,2834.333402083498,-31.73220469927452) translate(274.72222222222223 44.44444444444444)"/><path d="M3418.5 54.1a6 6 0 0 1 6-6h278.67a6 6 0 0 1 6 6v88a6 6 0 0 1-6 6H3424.5a6 6 0 0 1-6-6z" stroke="#282c33" fill="#fff"/><use xlink:href="#l" transform="matrix(1,0,0,1,3430.500000000001,60.08920103312566) translate(46.4320987654321 17.77777777777778)"/><use xlink:href="#m" transform="matrix(1,0,0,1,3430.500000000001,60.08920103312566) translate(119.58024691358024 17.77777777777778)"/><use xlink:href="#n" transform="matrix(1,0,0,1,3430.500000000001,60.08920103312566) translate(73.71604938271605 44.44444444444444)"/><use xlink:href="#o" transform="matrix(1,0,0,1,3430.500000000001,60.08920103312566) translate(36.77160493827161 71.11111111111111)"/><use xlink:href="#p" transform="matrix(1,0,0,1,3430.500000000001,60.08920103312566) translate(135.35185185185185 71.11111111111111)"/><path d="M2476 381.97a6 6 0 0 1 6-6h278.67a6 6 0 0 1 6 6v65.27a6 6 0 0 1-6 6H2482a6 6 0 0 1-6-6z" stroke="#282c33" fill="#fff"/><use xlink:href="#l" transform="matrix(1,0,0,1,2488,387.97300565781194) translate(27.697530864197546 21.15277777777778)"/><use xlink:href="#q" transform="matrix(1,0,0,1,2488,387.97300565781194) translate(100.84567901234568 21.15277777777778)"/><use xlink:href="#r" transform="matrix(1,0,0,1,2488,387.97300565781194) translate(176.40123456790124 21.15277777777778)"/><use xlink:href="#s" transform="matrix(1,0,0,1,2488,387.97300565781194) translate(7.913580246913568 47.81944444444444)"/><use xlink:href="#t" transform="matrix(1,0,0,1,2488,387.97300565781194) translate(133.65432098765433 47.81944444444444)"/><path d="M3284 56.43c23.02 0 41.67 18.65 41.67 41.66 0 23-18.65 41.65-41.66 41.65h-375.34c-23 0-41.66-18.66-41.66-41.66 0-23.02 18.65-41.67 41.66-41.67z" stroke="#b5d6ff" stroke-width="2" fill="#cfe4ff"/><use xlink:href="#u" transform="matrix(1,0,0,1,2872.000068683983,61.43295103312573) translate(200.00109375 30.525390625)"/><use xlink:href="#v" transform="matrix(1,0,0,1,2872.000068683983,61.43295103312573) translate(38.4747265625 53.181640625)"/><use xlink:href="#w" transform="matrix(1,0,0,1,2872.000068683983,61.43295103312573) translate(50.4766796875 53.181640625)"/><use xlink:href="#x" transform="matrix(1,0,0,1,2872.000068683983,61.43295103312573) translate(206.5020703125 53.181640625)"/><use xlink:href="#y" transform="matrix(1,0,0,1,2872.000068683983,61.43295103312573) translate(290.5157421875 53.181640625)"/><path d="M3096.33 21.1v17.95" stroke="#3a414a" fill="none"/><path d="M3096.8 21.1h-.94v-.5h.95z" stroke="#3a414a" stroke-width=".05" fill="#3a414a"/><path d="M3096.33 53.81l-4.63-14.25h9.27z" stroke="#3a414a" fill="#3a414a"/><path d="M2730.33 98.1h119.28" stroke="#3a414a" fill="none"/><path d="M2730.35 98.56h-.52v-.95h.52z" stroke="#3a414a" stroke-width=".05" fill="#3a414a"/><path d="M2864.38 98.1l-14.27 4.62v-9.27z" stroke="#3a414a" fill="#3a414a"/><path d="M3327.17 98.1h74.45" stroke="#3a414a" fill="none"/><path d="M3327.18 98.56h-.54l.03-.44v-.5h.5z" stroke="#3a414a" stroke-width=".05" fill="#3a414a"/><path d="M3416.38 98.1l-14.26 4.62v-9.27z" stroke="#3a414a" fill="#3a414a"/><path d="M3565.73 288c12.62 0 22.84 10.22 22.84 22.84 0 12.6-10.22 22.83-22.84 22.83h-181.56c-12.6 0-22.84-10.22-22.84-22.83 0-12.62 10.23-22.84 22.84-22.84z" stroke="#b5d6ff" stroke-width="2" fill="#cfe4ff"/><use xlink:href="#z" transform="matrix(1,0,0,1,3366.333333333335,292.9999999999997) translate(36.98828125 23.400390625)"/><use xlink:href="#A" transform="matrix(1,0,0,1,3366.333333333335,292.9999999999997) translate(145.005859375 23.400390625)"/><path d="M3673.33 149.1v155.74a6 6 0 0 1-6 6h-61.38" stroke="#3a414a" fill="none"/><path d="M3673.8 149.1h-.94v-.5h.95z" stroke="#3a414a" stroke-width=".05" fill="#3a414a"/><path d="M3591.2 310.84l14.25-4.64v9.27z" stroke="#3a414a" fill="#3a414a"/><path d="M3359.83 310.84h-732.5a6 6 0 0 0-6 6v42.25" stroke="#3a414a" fill="none"/><path d="M3360.33 310.8v.5h-.5v-.94h.55z" stroke="#3a414a" stroke-width=".05" fill="#3a414a"/><path d="M2621.33 373.86l-4.63-14.27h9.27z" stroke="#3a414a" fill="#3a414a"/><path d="M2621.33 454.24v45.62" stroke="#3a414a" fill="none"/><path d="M2621.8 454.25h-.94v-.5h.95z" stroke="#3a414a" stroke-width=".05" fill="#3a414a"/><path d="M2621.33 514.62l-4.63-14.26h9.27z" stroke="#3a414a" fill="#3a414a"/><path d="M2513.33 678.67a6 6 0 0 1 6-6H2694a6 6 0 0 1 6 6v66.66a6 6 0 0 1-6 6h-174.67a6 6 0 0 1-6-6z" stroke="#282c33" fill="#fff"/><use xlink:href="#l" transform="matrix(1,0,0,1,2525.333333333334,684.6666666666661) translate(10.234567901234584 21.21527777777778)"/><use xlink:href="#B" transform="matrix(1,0,0,1,2525.333333333334,684.6666666666661) translate(83.38271604938272 21.21527777777778)"/><use xlink:href="#C" transform="matrix(1,0,0,1,2525.333333333334,684.6666666666661) translate(26.839506172839506 47.88194444444444)"/><use xlink:href="#D" transform="matrix(1,0,0,1,2525.333333333334,684.6666666666661) translate(90.54320987654322 47.88194444444444)"/><path d="M2694.95 517.24c23.04 0 41.72 18.68 41.72 41.72s-18.68 41.72-41.72 41.72h-147.23c-23.04 0-41.72-18.68-41.72-41.72s18.68-41.72 41.72-41.72z" stroke="#b5d6ff" stroke-width="2" fill="#cfe4ff"/><use xlink:href="#E" transform="matrix(1,0,0,1,2511,522.2419336401055) translate(61.997187499999995 18.962890625)"/><use xlink:href="#F" transform="matrix(1,0,0,1,2511,522.2419336401055) translate(8.4833984375 41.619140625)"/><use xlink:href="#G" transform="matrix(1,0,0,1,2511,522.2419336401055) translate(80.4951171875 41.619140625)"/><use xlink:href="#H" transform="matrix(1,0,0,1,2511,522.2419336401055) translate(44.4942578125 64.275390625)"/><use xlink:href="#I" transform="matrix(1,0,0,1,2511,522.2419336401055) translate(80.5001171875 64.275390625)"/><path d="M2612 602.18v53.6" stroke="#3a414a" fill="none"/><path d="M2612.47 602.2h-.94v-.52h.94z" stroke="#3a414a" stroke-width=".05" fill="#3a414a"/><path d="M2612 670.55l-4.64-14.27h9.28z" stroke="#3a414a" fill="#3a414a"/><path d="M2961.25 566c14.17 0 25.66 11.5 25.66 25.67 0 14.17-11.48 25.66-25.65 25.66h-52.5c-14.17 0-25.66-11.5-25.66-25.66 0-14.18 11.48-25.67 25.65-25.67z" stroke="#b5d6ff" stroke-width="2" fill="#cfe4ff"/><use xlink:href="#J" transform="matrix(1,0,0,1,2888.0876865662804,570.9999999999997) translate(10.994140625 27.150390625)"/><path d="M2832.33 684.13a6 6 0 0 1 6-6H3041a6 6 0 0 1 6 6v66.66a6 6 0 0 1-6 6h-202.67a6 6 0 0 1-6-6z" stroke="#282c33" fill="#fff"/><use xlink:href="#l" transform="matrix(1,0,0,1,2844.333402017316,690.1260994794773) translate(19.604938271604937 21.21527777777778)"/><use xlink:href="#K" transform="matrix(1,0,0,1,2844.333402017316,690.1260994794773) translate(92.75308641975307 21.21527777777778)"/><use xlink:href="#C" transform="matrix(1,0,0,1,2844.333402017316,690.1260994794773) translate(40.839506172839506 47.88194444444444)"/><use xlink:href="#D" transform="matrix(1,0,0,1,2844.333402017316,690.1260994794773) translate(104.54320987654322 47.88194444444444)"/><path d="M2964 453.24c14.18 0 25.67 11.5 25.67 25.67 0 14.18-11.5 25.68-25.67 25.68h-58c-14.18 0-25.67-11.5-25.67-25.67 0-14.17 11.5-25.66 25.67-25.66z" stroke="#b5d6ff" stroke-width="2" fill="#cfe4ff"/><use xlink:href="#L" transform="matrix(1,0,0,1,2885.3334020173174,458.2419336401055) translate(13.994140625 27.150390625)"/><path d="M2701 712h53a6 6 0 0 0 6-6V484.9a6 6 0 0 1 6-6h96.95" stroke="#3a414a" fill="none"/><path d="M2701 712.48h-.5v-.96h.5z" stroke="#3a414a" stroke-width=".05" fill="#3a414a"/><path d="M2877.72 478.9l-14.27 4.64v-9.27z" stroke="#3a414a" fill="#3a414a"/><path d="M2935 618.83v42.4" stroke="#3a414a" fill="none"/><path d="M2935.47 618.85h-.94v-.52h.94z" stroke="#3a414a" stroke-width=".05" fill="#3a414a"/><path d="M2935 676l-4.64-14.26h9.28z" stroke="#3a414a" fill="#3a414a"/><path d="M3703.33 453.24c14.18 0 25.67 11.5 25.67 25.67 0 14.18-11.5 25.68-25.67 25.68h-244.66c-14.18 0-25.67-11.5-25.67-25.67 0-14.17 11.5-25.66 25.67-25.66z" stroke="#b5d6ff" stroke-width="2" fill="#cfe4ff"/><use xlink:href="#M" transform="matrix(1,0,0,1,3437.999931316014,458.2419336401055) translate(40.9833984375 27.150390625)"/><use xlink:href="#N" transform="matrix(1,0,0,1,3437.999931316014,458.2419336401055) translate(124.9970703125 27.150390625)"/><path d="M3309 453.24c14.18 0 25.67 11.5 25.67 25.67 0 14.18-11.5 25.68-25.67 25.68h-126c-14.18 0-25.67-11.5-25.67-25.67 0-14.17 11.5-25.66 25.67-25.66z" stroke="#b5d6ff" stroke-width="2" fill="#cfe4ff"/><use xlink:href="#O" transform="matrix(1,0,0,1,3162.333333333331,458.2419336401055) translate(17.9892578125 27.150390625)"/><use xlink:href="#P" transform="matrix(1,0,0,1,3162.333333333331,458.2419336401055) translate(102.0029296875 27.150390625)"/><path d="M3703.33 544.27c14.18 0 25.67 11.5 25.67 25.67 0 14.17-11.5 25.66-25.67 25.66h-244.66c-14.18 0-25.67-11.5-25.67-25.66 0-14.18 11.5-25.67 25.67-25.67z" stroke="#b5d6ff" stroke-width="2" fill="#cfe4ff"/><g><use xlink:href="#Q" transform="matrix(1,0,0,1,3437.999931316014,549.2689279822927) translate(10.978515625 27.150390625)"/><use xlink:href="#R" transform="matrix(1,0,0,1,3437.999931316014,549.2689279822927) translate(106.994140625 27.150390625)"/></g><path d="M3123.83 678.67a6 6 0 0 1 6-6h242.67a6 6 0 0 1 6 6v66.66a6 6 0 0 1-6 6h-242.67a6 6 0 0 1-6-6z" stroke="#282c33" fill="#fff"/><g><use xlink:href="#l" transform="matrix(1,0,0,1,3135.8333333333344,684.6666666666661) translate(4.481481481481481 21.21527777777778)"/><use xlink:href="#S" transform="matrix(1,0,0,1,3135.8333333333344,684.6666666666661) translate(77.62962962962962 21.21527777777778)"/><use xlink:href="#T" transform="matrix(1,0,0,1,3135.8333333333344,684.6666666666661) translate(142.19753086419752 21.21527777777778)"/><use xlink:href="#C" transform="matrix(1,0,0,1,3135.8333333333344,684.6666666666661) translate(60.839506172839506 47.88194444444444)"/><use xlink:href="#D" transform="matrix(1,0,0,1,3135.8333333333344,684.6666666666661) translate(124.54320987654322 47.88194444444444)"/></g><path d="M3477.43 678.67a6 6 0 0 1 6-6h202.67a6 6 0 0 1 6 6v66.66a6 6 0 0 1-6 6h-202.66a6 6 0 0 1-6-6z" stroke="#282c33" fill="#fff"/><g><use xlink:href="#l" transform="matrix(1,0,0,1,3489.4354737719977,684.6666666666661) translate(19.604938271604937 21.21527777777778)"/><use xlink:href="#K" transform="matrix(1,0,0,1,3489.4354737719977,684.6666666666661) translate(92.75308641975307 21.21527777777778)"/><use xlink:href="#U" transform="matrix(1,0,0,1,3489.4354737719977,684.6666666666661) translate(13.493827160493822 47.88194444444444)"/><use xlink:href="#V" transform="matrix(1,0,0,1,3489.4354737719977,684.6666666666661) translate(96.14814814814814 47.88194444444444)"/></g><path d="M3048 717.46h47.92a6 6 0 0 0 6-6V484.9a6 6 0 0 1 6-6h32.03" stroke="#3a414a" fill="none"/><path d="M3048 717.93h-.5v-.95h.5z" stroke="#3a414a" stroke-width=".05" fill="#3a414a"/><path d="M3154.72 478.9l-14.27 4.64v-9.27z" stroke="#3a414a" fill="#3a414a"/><path d="M3251.17 506.07v149.7" stroke="#3a414a" fill="none"/><path d="M3251.64 506.1h-.95v-.53h.94z" stroke="#3a414a" stroke-width=".05" fill="#3a414a"/><path d="M3251.17 670.55l-4.64-14.27h9.27z" stroke="#3a414a" fill="#3a414a"/><path d="M3379.5 712h20a6 6 0 0 0 6-6V484.9a6 6 0 0 1 6-6h4.12" stroke="#3a414a" fill="none"/><path d="M3379.5 712.48h-.5v-.96h.5z" stroke="#3a414a" stroke-width=".05" fill="#3a414a"/><path d="M3430.38 478.9l-14.26 4.64v-9.27z" stroke="#3a414a" fill="#3a414a"/><path d="M3730.5 478.9h33.5a6 6 0 0 1 6 6v79.04a6 6 0 0 1-6 6h-17.62" stroke="#3a414a" fill="none"/><path d="M3730.5 479.38h-.54l.04-.43v-.52h.5z" stroke="#3a414a" stroke-width=".05" fill="#3a414a"/><path d="M3731.62 569.94l14.26-4.64v9.27z" stroke="#3a414a" fill="#3a414a"/><path d="M3581 597.1v58.68" stroke="#3a414a" fill="none"/><path d="M3581.47 597.1h-.94v-.5h.94z" stroke="#3a414a" stroke-width=".05" fill="#3a414a"/><path d="M3581 670.55l-4.64-14.27h9.28z" stroke="#3a414a" fill="#3a414a"/><path d="M2935 506.07v42.55" stroke="#3a414a" fill="none"/><path d="M2935.47 506.1h-.94v-.53h.94z" stroke="#3a414a" stroke-width=".05" fill="#3a414a"/><path d="M2935 563.38l-4.64-14.26h9.28z" stroke="#3a414a" fill="#3a414a"/><path d="M2730.33 98.1h61.6a6 6 0 0 1 6 6v60.57a6 6 0 0 0 6 6h665.02a6 6 0 0 1 6 6v93.95" stroke="#3a414a" fill="none"/><path d="M2730.35 98.56h-.52v-.95h.52z" stroke="#3a414a" stroke-width=".05" fill="#3a414a"/><path d="M3474.95 285.38l-4.63-14.26h9.27z" stroke="#3a414a" fill="#3a414a"/><path d="M2453.33 254.18a6 6 0 0 1 6-6h320a6 6 0 0 1 6 6v43.62a6 6 0 0 1-6 6h-320a6 6 0 0 1-6-6z" fill="#fff" fill-opacity="0"/><g><use xlink:href="#W" transform="matrix(1,0,0,1,2458.3333333333326,253.18119767434985) translate(28.950617283950635 30.638888888888886)"/><use xlink:href="#X" transform="matrix(1,0,0,1,2458.3333333333326,253.18119767434985) translate(148.03703703703704 30.638888888888886)"/></g><path d="M2453.33-61.24a6 6 0 0 1 6-6h330.34a6 6 0 0 1 6 6v35.62a6 6 0 0 1-6 6h-330.34a6 6 0 0 1-6-6z" stroke="#000" stroke-opacity="0" stroke-width="2" fill="#fff" fill-opacity="0"/><g><use xlink:href="#Y" transform="matrix(1,0,0,1,2458.3333333333326,-62.24403619953341) translate(37.12962962962965 27.263888888888886)"/></g><defs><path fill="#3a414a" d="M16-82v-28h88v28H16" id="Z"/><use transform="matrix(0.06172839506172839,0,0,0.06172839506172839,0,0)" xlink:href="#Z" id="a"/><path fill="#3a414a" d="M199 0l-22-63H83L61 0H9l90-248h61L250 0h-51zm-33-102l-36-108c-10 38-24 72-36 108h72" id="aa"/><path fill="#3a414a" d="M115-3C79 11 28 4 28-45v-112H4v-33h27l15-45h31v45h36v33H77v99c-1 23 16 31 38 25v30" id="ab"/><path fill="#3a414a" d="M110-194c64 0 96 36 96 99 0 64-35 99-97 99-61 0-95-36-95-99 0-62 34-99 96-99zm-1 164c35 0 45-28 45-65 0-40-10-65-43-65-34 0-45 26-45 65 0 36 10 65 43 65" id="ac"/><path fill="#3a414a" d="M220-157c-53 9-28 100-34 157h-49v-107c1-27-5-49-29-50C55-147 81-57 75 0H25l-1-190h47c2 12-1 28 3 38 10-53 101-56 108 0 13-22 24-43 59-42 82 1 51 116 57 194h-49v-107c-1-25-5-48-29-50" id="ad"/><path fill="#3a414a" d="M25-224v-37h50v37H25zM25 0v-190h50V0H25" id="ae"/><path fill="#3a414a" d="M190-63c-7 42-38 67-86 67-59 0-84-38-90-98-12-110 154-137 174-36l-49 2c-2-19-15-32-35-32-30 0-35 28-38 64-6 74 65 87 74 30" id="af"/><g id="b"><use transform="matrix(0.06172839506172839,0,0,0.06172839506172839,0,0)" xlink:href="#aa"/><use transform="matrix(0.06172839506172839,0,0,0.06172839506172839,15.987654320987653,0)" xlink:href="#ab"/><use transform="matrix(0.06172839506172839,0,0,0.06172839506172839,23.333333333333332,0)" xlink:href="#ac"/><use transform="matrix(0.06172839506172839,0,0,0.06172839506172839,36.85185185185185,0)" xlink:href="#ad"/><use transform="matrix(0.06172839506172839,0,0,0.06172839506172839,56.60493827160494,0)" xlink:href="#ae"/><use transform="matrix(0.06172839506172839,0,0,0.06172839506172839,62.77777777777778,0)" xlink:href="#af"/></g><path fill="#3a414a" d="M169-182c-1-43-94-46-97-3 18 66 151 10 154 114 3 95-165 93-204 36-6-8-10-19-12-30l50-8c3 46 112 56 116 5-17-69-150-10-154-114-4-87 153-88 188-35 5 8 8 18 10 28" id="ag"/><path fill="#3a414a" d="M135-150c-39-12-60 13-60 57V0H25l-1-190h47c2 13-1 29 3 40 6-28 27-53 61-41v41" id="ah"/><path fill="#3a414a" d="M85 4C-2 5 27-109 22-190h50c7 57-23 150 33 157 60-5 35-97 40-157h50l1 190h-47c-2-12 1-28-3-38-12 25-28 42-61 42" id="ai"/><path fill="#3a414a" d="M185-48c-13 30-37 53-82 52C43 2 14-33 14-96s30-98 90-98c62 0 83 45 84 108H66c0 31 8 55 39 56 18 0 30-7 34-22zm-45-69c5-46-57-63-70-21-2 6-4 13-4 21h74" id="aj"/><g id="c"><use transform="matrix(0.06172839506172839,0,0,0.06172839506172839,0,0)" xlink:href="#ag"/><use transform="matrix(0.06172839506172839,0,0,0.06172839506172839,14.814814814814813,0)" xlink:href="#ab"/><use transform="matrix(0.06172839506172839,0,0,0.06172839506172839,22.160493827160494,0)" xlink:href="#ah"/><use transform="matrix(0.06172839506172839,0,0,0.06172839506172839,30.80246913580247,0)" xlink:href="#ai"/><use transform="matrix(0.06172839506172839,0,0,0.06172839506172839,44.32098765432099,0)" xlink:href="#af"/><use transform="matrix(0.06172839506172839,0,0,0.06172839506172839,56.666666666666664,0)" xlink:href="#ab"/><use transform="matrix(0.06172839506172839,0,0,0.06172839506172839,64.01234567901234,0)" xlink:href="#ai"/><use transform="matrix(0.06172839506172839,0,0,0.06172839506172839,77.53086419753086,0)" xlink:href="#ah"/><use transform="matrix(0.06172839506172839,0,0,0.06172839506172839,86.17283950617283,0)" xlink:href="#aj"/></g><path fill="#3a414a" d="M100-194c62-1 85 37 85 99 1 63-27 99-86 99S16-35 15-95c0-66 28-99 85-99zM99-20c44 1 53-31 53-75 0-43-8-75-51-75s-53 32-53 75 10 74 51 75" id="ak"/><path fill="#3a414a" d="M101-234c-31-9-42 10-38 44h38v23H63V0H32v-167H5v-23h27c-7-52 17-82 69-68v24" id="al"/><g id="d"><use transform="matrix(0.06172839506172839,0,0,0.06172839506172839,0,0)" xlink:href="#ak"/><use transform="matrix(0.06172839506172839,0,0,0.06172839506172839,12.345679012345679,0)" xlink:href="#al"/></g><path fill="#3a414a" d="M59-47c-2 24 18 29 38 22v24C64 9 27 4 27-40v-127H5v-23h24l9-43h21v43h35v23H59v120" id="am"/><path fill="#3a414a" d="M106-169C34-169 62-67 57 0H25v-261h32l-1 103c12-21 28-36 61-36 89 0 53 116 60 194h-32v-121c2-32-8-49-39-48" id="an"/><path fill="#3a414a" d="M100-194c63 0 86 42 84 106H49c0 40 14 67 53 68 26 1 43-12 49-29l28 8c-11 28-37 45-77 45C44 4 14-33 15-96c1-61 26-98 85-98zm52 81c6-60-76-77-97-28-3 7-6 17-6 28h103" id="ao"/><g id="e"><use transform="matrix(0.06172839506172839,0,0,0.06172839506172839,0,0)" xlink:href="#am"/><use transform="matrix(0.06172839506172839,0,0,0.06172839506172839,6.172839506172839,0)" xlink:href="#an"/><use transform="matrix(0.06172839506172839,0,0,0.06172839506172839,18.51851851851852,0)" xlink:href="#ao"/></g><path fill="#3a414a" d="M233-177c-1 41-23 64-60 70L243 0h-38l-65-103H63V0H30v-248c88 3 205-21 203 71zM63-129c60-2 137 13 137-47 0-61-80-42-137-45v92" id="ap"/><path fill="#3a414a" d="M24-231v-30h32v30H24zM24 0v-190h32V0H24" id="aq"/><path fill="#3a414a" d="M115-194c53 0 69 39 70 98 0 66-23 100-70 100C84 3 66-7 56-30L54 0H23l1-261h32v101c10-23 28-34 59-34zm-8 174c40 0 45-34 45-75 0-40-5-75-45-74-42 0-51 32-51 76 0 43 10 73 51 73" id="ar"/><path fill="#3a414a" d="M135-143c-3-34-86-38-87 0 15 53 115 12 119 90S17 21 10-45l28-5c4 36 97 45 98 0-10-56-113-15-118-90-4-57 82-63 122-42 12 7 21 19 24 35" id="as"/><path fill="#3a414a" d="M210-169c-67 3-38 105-44 169h-31v-121c0-29-5-50-35-48C34-165 62-65 56 0H25l-1-190h30c1 10-1 24 2 32 10-44 99-50 107 0 11-21 27-35 58-36 85-2 47 119 55 194h-31v-121c0-29-5-49-35-48" id="at"/><g id="f"><use transform="matrix(0.06172839506172839,0,0,0.06172839506172839,0,0)" xlink:href="#ap"/><use transform="matrix(0.06172839506172839,0,0,0.06172839506172839,15.987654320987653,0)" xlink:href="#aq"/><use transform="matrix(0.06172839506172839,0,0,0.06172839506172839,20.864197530864196,0)" xlink:href="#ar"/><use transform="matrix(0.06172839506172839,0,0,0.06172839506172839,33.20987654320987,0)" xlink:href="#ak"/><use transform="matrix(0.06172839506172839,0,0,0.06172839506172839,45.55555555555555,0)" xlink:href="#as"/><use transform="matrix(0.06172839506172839,0,0,0.06172839506172839,56.66666666666666,0)" xlink:href="#ak"/><use transform="matrix(0.06172839506172839,0,0,0.06172839506172839,69.01234567901234,0)" xlink:href="#at"/><use transform="matrix(0.06172839506172839,0,0,0.06172839506172839,87.46913580246913,0)" xlink:href="#ao"/></g><path fill="#3a414a" d="M30-248c87 1 191-15 191 75 0 78-77 80-158 76V0H30v-248zm33 125c57 0 124 11 124-50 0-59-68-47-124-48v98" id="au"/><path fill="#3a414a" d="M127-220V0H93v-220H8v-28h204v28h-85" id="av"/><path fill="#3a414a" d="M212-179c-10-28-35-45-73-45-59 0-87 40-87 99 0 60 29 101 89 101 43 0 62-24 78-52l27 14C228-24 195 4 139 4 59 4 22-46 18-125c-6-104 99-153 187-111 19 9 31 26 39 46" id="aw"/><path fill="#3a414a" d="M87 75C49 33 22-17 22-94c0-76 28-126 65-167h31c-38 41-64 92-64 168S80 34 118 75H87" id="ax"/><path fill="#3a414a" d="M115-194c55 1 70 41 70 98S169 2 115 4C84 4 66-9 55-30l1 105H24l-1-265h31l2 30c10-21 28-34 59-34zm-8 174c40 0 45-34 45-75s-6-73-45-74c-42 0-51 32-51 76 0 43 10 73 51 73" id="ay"/><path fill="#3a414a" d="M85-194c31 0 48 13 60 33l-1-100h32l1 261h-30c-2-10 0-23-3-31C134-8 116 4 85 4 32 4 16-35 15-94c0-66 23-100 70-100zm9 24c-40 0-46 34-46 75 0 40 6 74 45 74 42 0 51-32 51-76 0-42-9-74-50-73" id="az"/><path fill="#3a414a" d="M179-190L93 31C79 59 56 82 12 73V49c39 6 53-20 64-50L1-190h34L92-34l54-156h33" id="aA"/><path fill="#3a414a" d="M24 0v-261h32V0H24" id="aB"/><g id="g"><use transform="matrix(0.06172839506172839,0,0,0.06172839506172839,0,0)" xlink:href="#au"/><use transform="matrix(0.06172839506172839,0,0,0.06172839506172839,14.814814814814813,0)" xlink:href="#av"/><use transform="matrix(0.06172839506172839,0,0,0.06172839506172839,28.33333333333333,0)" xlink:href="#aw"/><use transform="matrix(0.06172839506172839,0,0,0.06172839506172839,44.32098765432098,0)" xlink:href="#ax"/><use transform="matrix(0.06172839506172839,0,0,0.06172839506172839,51.66666666666666,0)" xlink:href="#au"/><use transform="matrix(0.06172839506172839,0,0,0.06172839506172839,66.48148148148147,0)" xlink:href="#ao"/><use transform="matrix(0.06172839506172839,0,0,0.06172839506172839,78.82716049382715,0)" xlink:href="#ay"/><use transform="matrix(0.06172839506172839,0,0,0.06172839506172839,91.17283950617283,0)" xlink:href="#am"/><use transform="matrix(0.06172839506172839,0,0,0.06172839506172839,97.34567901234567,0)" xlink:href="#aq"/><use transform="matrix(0.06172839506172839,0,0,0.06172839506172839,102.22222222222221,0)" xlink:href="#az"/><use transform="matrix(0.06172839506172839,0,0,0.06172839506172839,114.5679012345679,0)" xlink:href="#aA"/><use transform="matrix(0.06172839506172839,0,0,0.06172839506172839,125.67901234567901,0)" xlink:href="#aB"/></g><path fill="#3a414a" d="M114-163C36-179 61-72 57 0H25l-1-190h30c1 12-1 29 2 39 6-27 23-49 58-41v29" id="aC"/><path fill="#3a414a" d="M141-36C126-15 110 5 73 4 37 3 15-17 15-53c-1-64 63-63 125-63 3-35-9-54-41-54-24 1-41 7-42 31l-33-3c5-37 33-52 76-52 45 0 72 20 72 64v82c-1 20 7 32 28 27v20c-31 9-61-2-59-35zM48-53c0 20 12 33 32 33 41-3 63-29 60-74-43 2-92-5-92 41" id="aD"/><path fill="#3a414a" d="M117-194c89-4 53 116 60 194h-32v-121c0-31-8-49-39-48C34-167 62-67 57 0H25l-1-190h30c1 10-1 24 2 32 11-22 29-35 61-36" id="aE"/><g id="h"><use transform="matrix(0.06172839506172839,0,0,0.06172839506172839,0,0)" xlink:href="#av"/><use transform="matrix(0.06172839506172839,0,0,0.06172839506172839,12.716049382716047,0)" xlink:href="#aC"/><use transform="matrix(0.06172839506172839,0,0,0.06172839506172839,20.061728395061728,0)" xlink:href="#aD"/><use transform="matrix(0.06172839506172839,0,0,0.06172839506172839,32.407407407407405,0)" xlink:href="#aE"/><use transform="matrix(0.06172839506172839,0,0,0.06172839506172839,44.75308641975308,0)" xlink:href="#as"/><use transform="matrix(0.06172839506172839,0,0,0.06172839506172839,55.86419753086419,0)" xlink:href="#al"/><use transform="matrix(0.06172839506172839,0,0,0.06172839506172839,62.03703703703703,0)" xlink:href="#ao"/><use transform="matrix(0.06172839506172839,0,0,0.06172839506172839,74.38271604938271,0)" xlink:href="#aC"/><use transform="matrix(0.06172839506172839,0,0,0.06172839506172839,81.72839506172839,0)" xlink:href="#aD"/><use transform="matrix(0.06172839506172839,0,0,0.06172839506172839,94.07407407407408,0)" xlink:href="#as"/><use transform="matrix(0.06172839506172839,0,0,0.06172839506172839,105.18518518518519,0)" xlink:href="#ao"/></g><path fill="#3a414a" d="M33-261c38 41 65 92 65 168S71 34 33 75H2C39 34 66-17 66-93S39-220 2-261h31" id="aF"/><g id="i"><use transform="matrix(0.06172839506172839,0,0,0.06172839506172839,0,0)" xlink:href="#aw"/><use transform="matrix(0.06172839506172839,0,0,0.06172839506172839,15.987654320987653,0)" xlink:href="#ao"/><use transform="matrix(0.06172839506172839,0,0,0.06172839506172839,28.333333333333332,0)" xlink:href="#aE"/><use transform="matrix(0.06172839506172839,0,0,0.06172839506172839,40.67901234567901,0)" xlink:href="#am"/><use transform="matrix(0.06172839506172839,0,0,0.06172839506172839,46.851851851851855,0)" xlink:href="#ao"/><use transform="matrix(0.06172839506172839,0,0,0.06172839506172839,59.19753086419753,0)" xlink:href="#aC"/><use transform="matrix(0.06172839506172839,0,0,0.06172839506172839,66.54320987654322,0)" xlink:href="#aF"/></g><path fill="#3a414a" d="M67-125c0 53 21 87 73 88 37 1 54-22 65-47l45 17C233-25 199 4 140 4 58 4 20-42 15-125 8-235 124-281 211-232c18 10 29 29 36 50l-46 12c-8-25-30-41-62-41-52 0-71 34-72 86" id="aG"/><path fill="#3a414a" d="M88-194c31-1 46 15 58 34l-1-101h50l1 261h-48c-2-10 0-23-3-31C134-8 116 4 84 4 32 4 16-41 15-95c0-56 19-97 73-99zm17 164c33 0 40-30 41-66 1-37-9-64-41-64s-38 30-39 65c0 43 13 65 39 65" id="aH"/><path fill="#3a414a" d="M135-194c87-1 58 113 63 194h-50c-7-57 23-157-34-157-59 0-34 97-39 157H25l-1-190h47c2 12-1 28 3 38 12-26 28-41 61-42" id="aI"/><path fill="#3a414a" d="M133-34C117-15 103 5 69 4 32 3 11-16 11-54c-1-60 55-63 116-61 1-26-3-47-28-47-18 1-26 9-28 27l-52-2c7-38 36-58 82-57s74 22 75 68l1 82c-1 14 12 18 25 15v27c-30 8-71 5-69-32zm-48 3c29 0 43-24 42-57-32 0-66-3-65 30 0 17 8 27 23 27" id="aJ"/><g id="j"><use transform="matrix(0.06172839506172839,0,0,0.06172839506172839,0,0)" xlink:href="#aG"/><use transform="matrix(0.06172839506172839,0,0,0.06172839506172839,15.987654320987653,0)" xlink:href="#ac"/><use transform="matrix(0.06172839506172839,0,0,0.06172839506172839,29.50617283950617,0)" xlink:href="#ac"/><use transform="matrix(0.06172839506172839,0,0,0.06172839506172839,43.02469135802469,0)" xlink:href="#ah"/><use transform="matrix(0.06172839506172839,0,0,0.06172839506172839,51.666666666666664,0)" xlink:href="#aH"/><use transform="matrix(0.06172839506172839,0,0,0.06172839506172839,65.18518518518518,0)" xlink:href="#ae"/><use transform="matrix(0.06172839506172839,0,0,0.06172839506172839,71.35802469135801,0)" xlink:href="#aI"/><use transform="matrix(0.06172839506172839,0,0,0.06172839506172839,84.87654320987653,0)" xlink:href="#aJ"/><use transform="matrix(0.06172839506172839,0,0,0.06172839506172839,97.22222222222221,0)" xlink:href="#ab"/><use transform="matrix(0.06172839506172839,0,0,0.06172839506172839,104.5679012345679,0)" xlink:href="#aj"/></g><path fill="#3a414a" d="M30 0v-248h33v221h125V0H30" id="aK"/><path fill="#3a414a" d="M143 0L79-87 56-68V0H24v-261h32v163l83-92h37l-77 82L181 0h-38" id="aL"/><g id="k"><use transform="matrix(0.06172839506172839,0,0,0.06172839506172839,0,0)" xlink:href="#aK"/><use transform="matrix(0.06172839506172839,0,0,0.06172839506172839,12.345679012345679,0)" xlink:href="#aD"/><use transform="matrix(0.06172839506172839,0,0,0.06172839506172839,24.691358024691358,0)" xlink:href="#aE"/><use transform="matrix(0.06172839506172839,0,0,0.06172839506172839,37.03703703703704,0)" xlink:href="#az"/><use transform="matrix(0.06172839506172839,0,0,0.06172839506172839,49.382716049382715,0)" xlink:href="#at"/><use transform="matrix(0.06172839506172839,0,0,0.06172839506172839,67.8395061728395,0)" xlink:href="#aD"/><use transform="matrix(0.06172839506172839,0,0,0.06172839506172839,80.18518518518519,0)" xlink:href="#aC"/><use transform="matrix(0.06172839506172839,0,0,0.06172839506172839,87.53086419753087,0)" xlink:href="#aL"/></g><path fill="#3a414a" d="M84 4C-5 8 30-112 23-190h32v120c0 31 7 50 39 49 72-2 45-101 50-169h31l1 190h-30c-1-10 1-25-2-33-11 22-28 36-60 37" id="aM"/><g id="l"><use transform="matrix(0.06172839506172839,0,0,0.06172839506172839,0,0)" xlink:href="#av"/><use transform="matrix(0.06172839506172839,0,0,0.06172839506172839,12.716049382716047,0)" xlink:href="#aM"/><use transform="matrix(0.06172839506172839,0,0,0.06172839506172839,25.061728395061728,0)" xlink:href="#aE"/><use transform="matrix(0.06172839506172839,0,0,0.06172839506172839,37.407407407407405,0)" xlink:href="#aE"/><use transform="matrix(0.06172839506172839,0,0,0.06172839506172839,49.75308641975308,0)" xlink:href="#ao"/><use transform="matrix(0.06172839506172839,0,0,0.06172839506172839,62.09876543209876,0)" xlink:href="#aB"/></g><g id="m"><use transform="matrix(0.06172839506172839,0,0,0.06172839506172839,0,0)" xlink:href="#aw"/><use transform="matrix(0.06172839506172839,0,0,0.06172839506172839,15.987654320987653,0)" xlink:href="#ao"/><use transform="matrix(0.06172839506172839,0,0,0.06172839506172839,28.333333333333332,0)" xlink:href="#aE"/><use transform="matrix(0.06172839506172839,0,0,0.06172839506172839,40.67901234567901,0)" xlink:href="#am"/><use transform="matrix(0.06172839506172839,0,0,0.06172839506172839,46.851851851851855,0)" xlink:href="#ao"/><use transform="matrix(0.06172839506172839,0,0,0.06172839506172839,59.19753086419753,0)" xlink:href="#aC"/><use transform="matrix(0.06172839506172839,0,0,0.06172839506172839,66.54320987654322,0)" xlink:href="#aB"/><use transform="matrix(0.06172839506172839,0,0,0.06172839506172839,71.41975308641976,0)" xlink:href="#aq"/><use transform="matrix(0.06172839506172839,0,0,0.06172839506172839,76.2962962962963,0)" xlink:href="#aE"/><use transform="matrix(0.06172839506172839,0,0,0.06172839506172839,88.64197530864199,0)" xlink:href="#ao"/></g><g id="n"><use transform="matrix(0.06172839506172839,0,0,0.06172839506172839,0,0)" xlink:href="#aw"/><use transform="matrix(0.06172839506172839,0,0,0.06172839506172839,15.987654320987653,0)" xlink:href="#ak"/><use transform="matrix(0.06172839506172839,0,0,0.06172839506172839,28.333333333333332,0)" xlink:href="#ak"/><use transform="matrix(0.06172839506172839,0,0,0.06172839506172839,40.67901234567901,0)" xlink:href="#aC"/><use transform="matrix(0.06172839506172839,0,0,0.06172839506172839,48.02469135802469,0)" xlink:href="#az"/><use transform="matrix(0.06172839506172839,0,0,0.06172839506172839,60.37037037037037,0)" xlink:href="#aq"/><use transform="matrix(0.06172839506172839,0,0,0.06172839506172839,65.24691358024691,0)" xlink:href="#aE"/><use transform="matrix(0.06172839506172839,0,0,0.06172839506172839,77.5925925925926,0)" xlink:href="#aD"/><use transform="matrix(0.06172839506172839,0,0,0.06172839506172839,89.93827160493828,0)" xlink:href="#am"/><use transform="matrix(0.06172839506172839,0,0,0.06172839506172839,96.11111111111111,0)" xlink:href="#ao"/><use transform="matrix(0.06172839506172839,0,0,0.06172839506172839,108.4567901234568,0)" xlink:href="#as"/></g><path fill="#3a414a" d="M147 0L96-86 75-71V0H25v-261h50v150l67-79h53l-66 74L201 0h-54" id="aN"/><g id="o"><use transform="matrix(0.06172839506172839,0,0,0.06172839506172839,0,0)" xlink:href="#ax"/><use transform="matrix(0.06172839506172839,0,0,0.06172839506172839,7.345679012345679,0)" xlink:href="#ag"/><use transform="matrix(0.06172839506172839,0,0,0.06172839506172839,22.160493827160494,0)" xlink:href="#ab"/><use transform="matrix(0.06172839506172839,0,0,0.06172839506172839,29.50617283950617,0)" xlink:href="#aJ"/><use transform="matrix(0.06172839506172839,0,0,0.06172839506172839,41.85185185185185,0)" xlink:href="#af"/><use transform="matrix(0.06172839506172839,0,0,0.06172839506172839,54.197530864197525,0)" xlink:href="#aN"/><use transform="matrix(0.06172839506172839,0,0,0.06172839506172839,66.5432098765432,0)" xlink:href="#aj"/><use transform="matrix(0.06172839506172839,0,0,0.06172839506172839,78.88888888888889,0)" xlink:href="#aH"/></g><path fill="#3a414a" d="M135-194c53 0 70 44 70 98 0 56-19 98-73 100-31 1-45-17-59-34 3 33 2 69 2 105H25l-1-265h48c2 10 0 23 3 31 11-24 29-35 60-35zM114-30c33 0 39-31 40-66 0-38-9-64-40-64-56 0-55 130 0 130" id="aO"/><path fill="#3a414a" d="M114-157C55-157 80-60 75 0H25v-261h50l-1 109c12-26 28-41 61-42 86-1 58 113 63 194h-50c-7-57 23-157-34-157" id="aP"/><path fill="#3a414a" d="M137-138c1-29-70-34-71-4 15 46 118 7 119 86 1 83-164 76-172 9l43-7c4 19 20 25 44 25 33 8 57-30 24-41C81-84 22-81 20-136c-2-80 154-74 161-7" id="aQ"/><g id="p"><use transform="matrix(0.06172839506172839,0,0,0.06172839506172839,0,0)" xlink:href="#ag"/><use transform="matrix(0.06172839506172839,0,0,0.06172839506172839,14.814814814814813,0)" xlink:href="#aO"/><use transform="matrix(0.06172839506172839,0,0,0.06172839506172839,28.33333333333333,0)" xlink:href="#aP"/><use transform="matrix(0.06172839506172839,0,0,0.06172839506172839,41.85185185185185,0)" xlink:href="#aj"/><use transform="matrix(0.06172839506172839,0,0,0.06172839506172839,54.197530864197525,0)" xlink:href="#ah"/><use transform="matrix(0.06172839506172839,0,0,0.06172839506172839,62.8395061728395,0)" xlink:href="#aj"/><use transform="matrix(0.06172839506172839,0,0,0.06172839506172839,75.18518518518518,0)" xlink:href="#aQ"/><use transform="matrix(0.06172839506172839,0,0,0.06172839506172839,87.53086419753086,0)" xlink:href="#aF"/></g><path fill="#3a414a" d="M109-170H84l-4-78h32zm-65 0H19l-4-78h33" id="aR"/><path fill="#3a414a" d="M247 0h-39l-15-214-24 57L95 0H56L31-248h35L82-30l101-218h33l16 218 101-218h35" id="aS"/><path fill="#3a414a" d="M165-48c-4 18 1 34 23 27l-3 20c-29 8-62 0-52-35h-2C116-14 99 4 63 4 30 4 8-16 8-49c0-68 71-67 138-67 10-26 0-56-31-54-26 1-42 9-47 31l-32-5c8-67 160-71 144 15-5 28-9 54-15 81zM42-50c3 52 80 24 89-6 7-12 7-24 11-38-47 1-103-4-100 44" id="aT"/><path fill="#3a414a" d="M6 0l50-261h32L37 0H6" id="aU"/><path fill="#3a414a" d="M55-144c13 50 104 24 104 88C159 21 15 23 1-39l26-10c6 40 102 42 102-4-13-50-104-23-104-87 0-71 143-71 148-8l-29 4c-5-35-85-37-89 0" id="aV"/><g id="q"><use transform="matrix(0.06172839506172839,0,0,0.06172839506172839,0,0)" xlink:href="#aR"/><use transform="matrix(0.06172839506172839,0,0,0.06172839506172839,7.8395061728395055,0)" xlink:href="#aS"/><use transform="matrix(0.06172839506172839,0,0,0.06172839506172839,28.33333333333333,0)" xlink:href="#aT"/><use transform="matrix(0.06172839506172839,0,0,0.06172839506172839,40.679012345679006,0)" xlink:href="#aU"/><use transform="matrix(0.06172839506172839,0,0,0.06172839506172839,45.55555555555555,0)" xlink:href="#aU"/><use transform="matrix(0.06172839506172839,0,0,0.06172839506172839,50.432098765432094,0)" xlink:href="#aV"/><use transform="matrix(0.06172839506172839,0,0,0.06172839506172839,61.5432098765432,0)" xlink:href="#aR"/></g><path fill="#3a414a" d="M205 0l-28-72H64L36 0H1l101-248h38L239 0h-34zm-38-99l-47-123c-12 45-31 82-46 123h93" id="aW"/><g id="r"><use transform="matrix(0.06172839506172839,0,0,0.06172839506172839,0,0)" xlink:href="#aW"/><use transform="matrix(0.06172839506172839,0,0,0.06172839506172839,14.814814814814813,0)" xlink:href="#am"/><use transform="matrix(0.06172839506172839,0,0,0.06172839506172839,20.98765432098765,0)" xlink:href="#ak"/><use transform="matrix(0.06172839506172839,0,0,0.06172839506172839,33.33333333333333,0)" xlink:href="#at"/><use transform="matrix(0.06172839506172839,0,0,0.06172839506172839,51.79012345679011,0)" xlink:href="#as"/></g><path fill="#3a414a" d="M96-169c-40 0-48 33-48 73s9 75 48 75c24 0 41-14 43-38l32 2c-6 37-31 61-74 61-59 0-76-41-82-99-10-93 101-131 147-64 4 7 5 14 7 22l-32 3c-4-21-16-35-41-35" id="aX"/><path fill="#3a414a" d="M177-190C167-65 218 103 67 71c-23-6-38-20-44-43l32-5c15 47 100 32 89-28v-30C133-14 115 1 83 1 29 1 15-40 15-95c0-56 16-97 71-98 29-1 48 16 59 35 1-10 0-23 2-32h30zM94-22c36 0 50-32 50-73 0-42-14-75-50-75-39 0-46 34-46 75s6 73 46 73" id="aY"/><g id="s"><use transform="matrix(0.06172839506172839,0,0,0.06172839506172839,0,0)" xlink:href="#ap"/><use transform="matrix(0.06172839506172839,0,0,0.06172839506172839,15.987654320987653,0)" xlink:href="#ao"/><use transform="matrix(0.06172839506172839,0,0,0.06172839506172839,28.333333333333332,0)" xlink:href="#aX"/><use transform="matrix(0.06172839506172839,0,0,0.06172839506172839,39.44444444444444,0)" xlink:href="#am"/><use transform="matrix(0.06172839506172839,0,0,0.06172839506172839,45.617283950617285,0)" xlink:href="#aD"/><use transform="matrix(0.06172839506172839,0,0,0.06172839506172839,57.96296296296296,0)" xlink:href="#aE"/><use transform="matrix(0.06172839506172839,0,0,0.06172839506172839,70.30864197530865,0)" xlink:href="#aY"/><use transform="matrix(0.06172839506172839,0,0,0.06172839506172839,82.65432098765433,0)" xlink:href="#aM"/><use transform="matrix(0.06172839506172839,0,0,0.06172839506172839,95.00000000000001,0)" xlink:href="#aB"/><use transform="matrix(0.06172839506172839,0,0,0.06172839506172839,99.87654320987656,0)" xlink:href="#aD"/><use transform="matrix(0.06172839506172839,0,0,0.06172839506172839,112.22222222222224,0)" xlink:href="#aC"/></g><path fill="#3a414a" d="M24-248c93 1 206-16 204 79-1 75-69 88-152 82V0H24v-248zm52 121c47 0 100 7 100-41 0-47-54-39-100-39v80" id="aZ"/><path fill="#3a414a" d="M14-72v-43h91v43H14" id="ba"/><path fill="#3a414a" d="M25 0v-261h50V0H25" id="bb"/><g id="t"><use transform="matrix(0.06172839506172839,0,0,0.06172839506172839,0,0)" xlink:href="#aZ"/><use transform="matrix(0.06172839506172839,0,0,0.06172839506172839,14.814814814814813,0)" xlink:href="#ac"/><use transform="matrix(0.06172839506172839,0,0,0.06172839506172839,28.33333333333333,0)" xlink:href="#ae"/><use transform="matrix(0.06172839506172839,0,0,0.06172839506172839,34.50617283950617,0)" xlink:href="#aI"/><use transform="matrix(0.06172839506172839,0,0,0.06172839506172839,48.02469135802469,0)" xlink:href="#ab"/><use transform="matrix(0.06172839506172839,0,0,0.06172839506172839,55.37037037037037,0)" xlink:href="#ba"/><use transform="matrix(0.06172839506172839,0,0,0.06172839506172839,62.716049382716044,0)" xlink:href="#aG"/><use transform="matrix(0.06172839506172839,0,0,0.06172839506172839,78.7037037037037,0)" xlink:href="#bb"/><use transform="matrix(0.06172839506172839,0,0,0.06172839506172839,84.87654320987653,0)" xlink:href="#ac"/><use transform="matrix(0.06172839506172839,0,0,0.06172839506172839,98.39506172839505,0)" xlink:href="#ai"/><use transform="matrix(0.06172839506172839,0,0,0.06172839506172839,111.91358024691357,0)" xlink:href="#aH"/></g><path fill="#3a414a" d="M285-1169c8 382 2 780 4 1169H129v-1349h237c86 239 188 461 253 720 69-258 169-481 255-720h225V0H937c2-390-5-788 6-1169-75 255-170 488-259 729H547c-90-240-185-475-262-729" id="bc"/><path fill="#3a414a" d="M102-681c0-398 126-689 513-689 165 0 291 58 379 174s132 287 132 515c-1 318-88 554-298 657-123 61-317 58-438-3-206-104-288-341-288-654zm749 406c94-160 97-656-5-807-57-85-130-132-231-132-104 0-178 47-234 132-101 153-99 655 1 809 57 89 130 138 232 138 109 0 184-49 237-140" id="bd"/><path fill="#3a414a" d="M237 0v-1349h191v1193h672V0H237" id="be"/><path fill="#3a414a" d="M162 0v-1349h919v156H353v422h668v154H353v461h769V0H162" id="bf"/><g id="u"><use transform="matrix(0.009765625,0,0,0.009765625,0,0)" xlink:href="#bc"/><use transform="matrix(0.009765625,0,0,0.009765625,12.001953125,0)" xlink:href="#bd"/><use transform="matrix(0.009765625,0,0,0.009765625,24.00390625,0)" xlink:href="#be"/><use transform="matrix(0.009765625,0,0,0.009765625,36.005859375,0)" xlink:href="#bf"/></g><path fill="#3a414a" d="M891-1484c-201 251-362 514-362 954 0 441 161 704 362 955H701C500 176 342-90 342-532c0-440 159-704 359-952h190" id="bg"/><path fill="#3a414a" d="M622-1349c296 4 497 117 497 404 0 282-193 424-485 431H353V0H162v-1349h460zm-15 684c195-3 320-88 320-277 0-184-129-255-328-254H353v531h254" id="bh"/><path fill="#3a414a" d="M839-1102c70 0 148 7 206 17v167c-112-18-268-36-363 15-129 69-208 203-208 395V0H294c-10-367 32-789-52-1082h171c21 75 41 161 48 250h5c67-152 152-270 373-270" id="bi"/><path fill="#3a414a" d="M615-1102c343 0 484 203 482 560-1 347-147 562-488 562-336 0-475-219-479-562-4-349 156-560 485-560zm-8 989c240 0 301-180 301-429 0-245-55-427-290-427-236 0-299 181-299 427 0 243 61 429 288 429" id="bj"/><path fill="#3a414a" d="M365-904c58-129 161-200 334-200 130 0 228 46 293 138s98 233 98 420c0 189-34 331-102 425S824 20 698 20c-170 0-275-64-336-184 0 55-3 116-9 164H179c5-68 6-147 6-223v-1261h180c-2 193 4 394-4 580h4zm283 791c221 0 256-197 256-427 0-229-34-425-254-425-236 0-285 195-285 441 0 237 53 411 283 411" id="bk"/><path fill="#3a414a" d="M617-1102c355 0 481 238 477 599H322c5 222 84 388 301 388 144 0 244-59 284-166l158 45C1002-72 854 20 623 20c-342 0-490-220-490-568 0-346 151-554 484-554zm291 461c-18-192-90-328-289-328-194 0-287 128-295 328h584" id="bl"/><path fill="#3a414a" d="M334-464v-160h560v160H334" id="bm"/><path fill="#3a414a" d="M1000-272c3 95 12 159 101 161 21 0 41-3 59-7V-6c-44 10-86 16-139 16-141 2-191-84-197-217h-6C748-76 648 20 446 20c-207 0-318-120-318-322 0-266 194-348 454-354l236-4c12-191-40-305-222-305-140 0-220 47-232 172l-188-17c33-204 181-292 423-292 255 0 401 118 401 364v466zm-683-27c0 109 63 184 175 182 166-3 259-96 306-217 24-65 20-120 20-200-232 7-501-28-501 235" id="bn"/><path fill="#3a414a" d="M873-819c-18-114-119-146-250-146-163 0-245 50-245 151 0 151 170 148 294 185 182 54 388 94 388 320 0 240-189 325-439 329-245 4-410-69-454-268l159-31c24 133 136 168 295 165 144-2 270-31 270-171 0-164-195-160-331-202-167-52-350-87-350-299 0-218 173-315 413-313 220 2 373 77 412 260" id="bo"/><path fill="#3a414a" d="M865-914c-3-187-2-380-2-570h180v1261c0 76 1 155 6 223H877c-8-49-9-116-10-174h-5C801-44 708 26 530 26c-135 0-234-46-297-139s-95-232-95-419c0-377 131-566 392-566 176 0 271 63 335 184zm-286-51c-222 0-255 197-255 427 0 229 31 425 253 425 237 0 286-195 286-441 0-238-52-411-284-411" id="bp"/><g id="w"><use transform="matrix(0.009765625,0,0,0.009765625,0,0)" xlink:href="#bg"/><use transform="matrix(0.009765625,0,0,0.009765625,12.001953125,0)" xlink:href="#bh"/><use transform="matrix(0.009765625,0,0,0.009765625,24.00390625,0)" xlink:href="#bi"/><use transform="matrix(0.009765625,0,0,0.009765625,36.005859375,0)" xlink:href="#bj"/><use transform="matrix(0.009765625,0,0,0.009765625,48.0078125,0)" xlink:href="#bk"/><use transform="matrix(0.009765625,0,0,0.009765625,60.009765625,0)" xlink:href="#bl"/><use transform="matrix(0.009765625,0,0,0.009765625,72.01171875,0)" xlink:href="#bm"/><use transform="matrix(0.009765625,0,0,0.009765625,84.013671875,0)" xlink:href="#bk"/><use transform="matrix(0.009765625,0,0,0.009765625,96.015625,0)" xlink:href="#bn"/><use transform="matrix(0.009765625,0,0,0.009765625,108.017578125,0)" xlink:href="#bo"/><use transform="matrix(0.009765625,0,0,0.009765625,120.01953125,0)" xlink:href="#bl"/><use transform="matrix(0.009765625,0,0,0.009765625,132.021484375,0)" xlink:href="#bp"/></g><path fill="#3a414a" d="M631 20c-350 0-501-215-501-562 0-355 162-560 502-560 250 0 399 118 446 323l-192 14c-23-124-109-196-262-196-242 0-305 171-305 415 1 245 61 427 304 427 151 0 248-77 267-215l190 12C1039-107 883 20 631 20" id="bq"/><path fill="#3a414a" d="M715 0H502L69-1082h202c94 253 197 500 285 758 19 57 36 126 52 183 96-335 234-626 350-941h201" id="br"/><path fill="#3a414a" d="M745-142h380V0H143v-142h422v-798H246v-142h499v940zM545-1292v-192h200v192H545" id="bs"/><path fill="#3a414a" d="M682 16c-209 0-323-80-324-285v-671H190v-142h170l58-282h120v282h432v142H538v652c2 114 60 155 182 155 106 0 209-16 297-34v137C921-4 806 16 682 16" id="bt"/><path fill="#3a414a" d="M168 279c222 39 310-114 368-290L66-1082h192c120 299 249 590 362 896 115-301 235-597 351-896h190L705 0c-65 164-130 320-275 396-67 36-177 35-262 18V279" id="bu"/><g id="x"><use transform="matrix(0.009765625,0,0,0.009765625,0,0)" xlink:href="#bq"/><use transform="matrix(0.009765625,0,0,0.009765625,12.001953125,0)" xlink:href="#bn"/><use transform="matrix(0.009765625,0,0,0.009765625,24.00390625,0)" xlink:href="#br"/><use transform="matrix(0.009765625,0,0,0.009765625,36.005859375,0)" xlink:href="#bs"/><use transform="matrix(0.009765625,0,0,0.009765625,48.0078125,0)" xlink:href="#bt"/><use transform="matrix(0.009765625,0,0,0.009765625,60.009765625,0)" xlink:href="#bu"/></g><path fill="#3a414a" d="M706-1102c241 0 344 136 343 381V0H868v-695c1-168-57-273-220-268-190 6-283 138-283 336V0H185c-3-360 6-732-6-1082h170c4 54 7 126 8 185h3c63-121 164-204 346-205" id="bv"/><path fill="#3a414a" d="M528-1484c201 248 357 511 357 952 0 442-156 709-357 957H336C537 174 700-89 700-530c0-440-163-703-364-954h192" id="bw"/><g id="y"><use transform="matrix(0.009765625,0,0,0.009765625,0,0)" xlink:href="#bl"/><use transform="matrix(0.009765625,0,0,0.009765625,12.001953125,0)" xlink:href="#bt"/><use transform="matrix(0.009765625,0,0,0.009765625,24.00390625,0)" xlink:href="#bi"/><use transform="matrix(0.009765625,0,0,0.009765625,36.005859375,0)" xlink:href="#bn"/><use transform="matrix(0.009765625,0,0,0.009765625,48.0078125,0)" xlink:href="#bq"/><use transform="matrix(0.009765625,0,0,0.009765625,60.009765625,0)" xlink:href="#bt"/><use transform="matrix(0.009765625,0,0,0.009765625,72.01171875,0)" xlink:href="#bs"/><use transform="matrix(0.009765625,0,0,0.009765625,84.013671875,0)" xlink:href="#bj"/><use transform="matrix(0.009765625,0,0,0.009765625,96.015625,0)" xlink:href="#bv"/><use transform="matrix(0.009765625,0,0,0.009765625,108.017578125,0)" xlink:href="#bw"/></g><path fill="#3a414a" d="M802-711c201 25 350 118 350 331C1152-95 921 0 634 0H162v-1349c401 9 908-74 908 327 0 184-111 275-268 311zm-224-69c174-2 300-51 300-218 0-163-124-198-302-198H353v416h225zM353-153c281-2 612 44 606-244-5-271-329-233-606-234v478" id="bx"/><path fill="#3a414a" d="M528 20c-247 0-343-132-343-381v-721h180v686c-4 177 45 284 224 277 194-8 279-136 279-336v-627h181c3 360-6 732 6 1082H885c-4-54-7-126-8-185h-3C809-64 714 20 528 20" id="by"/><path fill="#3a414a" d="M1048-32c-2 300-135 456-433 456-222-1-358-88-400-267l184-25c22 99 100 157 222 156 184-2 248-125 248-315 0-64 3-133-2-194C807-100 706-13 524-12c-306 0-381-228-381-537 0-318 85-550 400-550 164 0 271 83 325 202h3c1-60 3-134 12-185h171c-13 339-4 702-6 1050zM585-145c210-8 284-178 284-406 0-192-52-331-177-392-33-16-69-22-104-22-223 2-259 184-259 414 0 229 31 415 256 406" id="bz"/><g id="z"><use transform="matrix(0.009765625,0,0,0.009765625,0,0)" xlink:href="#bx"/><use transform="matrix(0.009765625,0,0,0.009765625,12.001953125,0)" xlink:href="#bj"/><use transform="matrix(0.009765625,0,0,0.009765625,24.00390625,0)" xlink:href="#by"/><use transform="matrix(0.009765625,0,0,0.009765625,36.005859375,0)" xlink:href="#bv"/><use transform="matrix(0.009765625,0,0,0.009765625,48.0078125,0)" xlink:href="#bp"/><use transform="matrix(0.009765625,0,0,0.009765625,60.009765625,0)" xlink:href="#bs"/><use transform="matrix(0.009765625,0,0,0.009765625,72.01171875,0)" xlink:href="#bv"/><use transform="matrix(0.009765625,0,0,0.009765625,84.013671875,0)" xlink:href="#bz"/></g><path fill="#3a414a" d="M932 0L611-444 288 0H94l415-556-397-526h199l300 421 298-421h201L713-558 1133 0H932" id="bA"/><g id="A"><use transform="matrix(0.009765625,0,0,0.009765625,0,0)" xlink:href="#bx"/><use transform="matrix(0.009765625,0,0,0.009765625,12.001953125,0)" xlink:href="#bj"/><use transform="matrix(0.009765625,0,0,0.009765625,24.00390625,0)" xlink:href="#bA"/></g><g id="B"><use transform="matrix(0.06172839506172839,0,0,0.06172839506172839,0,0)" xlink:href="#aR"/><use transform="matrix(0.06172839506172839,0,0,0.06172839506172839,7.8395061728395055,0)" xlink:href="#aS"/><use transform="matrix(0.06172839506172839,0,0,0.06172839506172839,28.33333333333333,0)" xlink:href="#aT"/><use transform="matrix(0.06172839506172839,0,0,0.06172839506172839,40.679012345679006,0)" xlink:href="#aU"/><use transform="matrix(0.06172839506172839,0,0,0.06172839506172839,45.55555555555555,0)" xlink:href="#aU"/><use transform="matrix(0.06172839506172839,0,0,0.06172839506172839,50.432098765432094,0)" xlink:href="#aV"/><use transform="matrix(0.06172839506172839,0,0,0.06172839506172839,61.5432098765432,0)" xlink:href="#aR"/></g><path fill="#3a414a" d="M147 0H94L2-248h55l64 206c17-72 42-137 63-206h54" id="bB"/><path fill="#3a414a" d="M144 0l-44-69L55 0H2l70-98-66-92h53l41 62 40-62h54l-67 91 71 99h-54" id="bC"/><g id="C"><use transform="matrix(0.06172839506172839,0,0,0.06172839506172839,0,0)" xlink:href="#bB"/><use transform="matrix(0.06172839506172839,0,0,0.06172839506172839,13.148148148148147,0)" xlink:href="#ac"/><use transform="matrix(0.06172839506172839,0,0,0.06172839506172839,26.666666666666664,0)" xlink:href="#bC"/><use transform="matrix(0.06172839506172839,0,0,0.06172839506172839,39.01234567901234,0)" xlink:href="#aj"/><use transform="matrix(0.06172839506172839,0,0,0.06172839506172839,51.35802469135802,0)" xlink:href="#bb"/></g><path fill="#3a414a" d="M67-125c0 54 23 88 75 88 28 0 53-7 68-21v-34h-60v-39h108v91C232-14 192 4 140 4 58 4 20-42 15-125 8-236 126-280 215-234c19 10 29 26 37 47l-47 15c-11-23-29-39-63-39-53 1-75 33-75 86" id="bD"/><g id="D"><use transform="matrix(0.06172839506172839,0,0,0.06172839506172839,0,0)" xlink:href="#bD"/><use transform="matrix(0.06172839506172839,0,0,0.06172839506172839,17.28395061728395,0)" xlink:href="#ah"/><use transform="matrix(0.06172839506172839,0,0,0.06172839506172839,25.925925925925924,0)" xlink:href="#ae"/><use transform="matrix(0.06172839506172839,0,0,0.06172839506172839,32.098765432098766,0)" xlink:href="#aH"/></g><path fill="#3a414a" d="M713 0H515L10-1349h201C345-955 498-579 615-168c116-411 269-787 402-1181h201" id="bE"/><path fill="#3a414a" d="M736-142h380V0H134v-142h422v-1200H267v-142h469v1342" id="bF"/><path fill="#3a414a" d="M147 0v-137l681-806H187v-139h844v137L349-139h719V0H147" id="bG"/><g id="E"><use transform="matrix(0.009765625,0,0,0.009765625,0,0)" xlink:href="#bE"/><use transform="matrix(0.009765625,0,0,0.009765625,12.001953125,0)" xlink:href="#bj"/><use transform="matrix(0.009765625,0,0,0.009765625,24.00390625,0)" xlink:href="#bA"/><use transform="matrix(0.009765625,0,0,0.009765625,36.005859375,0)" xlink:href="#bl"/><use transform="matrix(0.009765625,0,0,0.009765625,48.0078125,0)" xlink:href="#bF"/><use transform="matrix(0.009765625,0,0,0.009765625,60.009765625,0)" xlink:href="#bs"/><use transform="matrix(0.009765625,0,0,0.009765625,72.01171875,0)" xlink:href="#bG"/><use transform="matrix(0.009765625,0,0,0.009765625,84.013671875,0)" xlink:href="#bl"/></g><path fill="#3a414a" d="M1034 0L896-382H333L196 0H0l510-1349h217L1228 0h-194zM847-531c-77-225-157-447-231-674-69 231-154 451-232 674h463" id="bH"/><path fill="#3a414a" d="M904-1102c199 0 220 177 220 381V0H956v-686c-3-114 0-215-60-264-70-33-125-4-158 71-26 56-39 140-39 252V0H531v-686c-3-114-1-215-61-264-78-41-136 24-157 84-24 69-39 159-39 259V0H105c-3-360 6-732-6-1082h149c6 50 3 123 8 175 36-100 83-195 216-195 135 0 166 79 196 196 42-105 93-196 236-196" id="bI"/><g id="F"><use transform="matrix(0.009765625,0,0,0.009765625,0,0)" xlink:href="#bg"/><use transform="matrix(0.009765625,0,0,0.009765625,12.001953125,0)" xlink:href="#bH"/><use transform="matrix(0.009765625,0,0,0.009765625,24.00390625,0)" xlink:href="#bt"/><use transform="matrix(0.009765625,0,0,0.009765625,36.005859375,0)" xlink:href="#bj"/><use transform="matrix(0.009765625,0,0,0.009765625,48.0078125,0)" xlink:href="#bI"/></g><path fill="#3a414a" d="M650-1214c-281 0-336 244-336 533 0 295 60 546 347 546 188 0 263-142 322-282l159 65C1058-155 935 20 659 20c-401 0-546-295-546-701 0-407 135-689 536-689 264 0 391 146 466 335l-168 65c-47-129-127-244-297-244" id="bJ"/><g id="G"><use transform="matrix(0.009765625,0,0,0.009765625,0,0)" xlink:href="#bJ"/><use transform="matrix(0.009765625,0,0,0.009765625,12.001953125,0)" xlink:href="#bj"/><use transform="matrix(0.009765625,0,0,0.009765625,24.00390625,0)" xlink:href="#bj"/><use transform="matrix(0.009765625,0,0,0.009765625,36.005859375,0)" xlink:href="#bi"/><use transform="matrix(0.009765625,0,0,0.009765625,48.0078125,0)" xlink:href="#bp"/><use transform="matrix(0.009765625,0,0,0.009765625,60.009765625,0)" xlink:href="#bs"/><use transform="matrix(0.009765625,0,0,0.009765625,72.01171875,0)" xlink:href="#bv"/><use transform="matrix(0.009765625,0,0,0.009765625,84.013671875,0)" xlink:href="#bn"/><use transform="matrix(0.009765625,0,0,0.009765625,96.015625,0)" xlink:href="#bt"/><use transform="matrix(0.009765625,0,0,0.009765625,108.017578125,0)" xlink:href="#bl"/><use transform="matrix(0.009765625,0,0,0.009765625,120.01953125,0)" xlink:href="#bo"/></g><g id="H"><use transform="matrix(0.009765625,0,0,0.009765625,0,0)" xlink:href="#bt"/><use transform="matrix(0.009765625,0,0,0.009765625,12.001953125,0)" xlink:href="#bj"/></g><path fill="#3a414a" d="M614-1226c-167 1-283 53-283 213 0 183 186 193 334 234 230 63 463 120 463 409 0 286-219 387-518 390C309 23 131-98 79-338l185-37c34 165 149 248 351 246 184-2 324-58 324-238 0-203-207-221-372-266-210-57-422-111-422-377 0-267 201-356 470-360 279-5 430 101 480 324l-188 33c-28-141-121-215-293-213" id="bK"/><path fill="#3a414a" d="M698-1104c312 3 392 244 392 558 0 315-82 566-392 566-169 0-277-65-331-184h-5c8 188 2 394 4 589H185V-858c0-76-1-156-6-224h175c6 52 9 120 10 178h4c58-122 150-202 330-200zm-49 991c225 0 255-203 255-433 0-225-32-419-253-419-236 0-285 192-285 441 0 237 53 411 283 411" id="bL"/><path fill="#3a414a" d="M648-963c-190 6-283 138-283 336V0H185v-1484h181c-2 197 6 404-9 587h3c62-120 159-205 339-205 242 0 351 135 350 381V0H868v-695c1-168-57-273-220-268" id="bM"/><g id="I"><use transform="matrix(0.009765625,0,0,0.009765625,0,0)" xlink:href="#bK"/><use transform="matrix(0.009765625,0,0,0.009765625,12.001953125,0)" xlink:href="#bL"/><use transform="matrix(0.009765625,0,0,0.009765625,24.00390625,0)" xlink:href="#bM"/><use transform="matrix(0.009765625,0,0,0.009765625,36.005859375,0)" xlink:href="#bl"/><use transform="matrix(0.009765625,0,0,0.009765625,48.0078125,0)" xlink:href="#bi"/><use transform="matrix(0.009765625,0,0,0.009765625,60.009765625,0)" xlink:href="#bl"/><use transform="matrix(0.009765625,0,0,0.009765625,72.01171875,0)" xlink:href="#bo"/><use transform="matrix(0.009765625,0,0,0.009765625,84.013671875,0)" xlink:href="#bw"/></g><path fill="#3a414a" d="M473-1349c438-1 655 221 652 661C1122-268 945-8 532 0H162v-1349h311zm42 1193c308-4 416-205 418-532 2-330-131-509-459-505H353v1037h162" id="bN"/><path fill="#3a414a" d="M912-211c-10-84-18-177-18-274v-864h172V0H836L316-1130c7 79 16 167 16 254V0H162v-1349h222" id="bO"/><g id="J"><use transform="matrix(0.009765625,0,0,0.009765625,0,0)" xlink:href="#bN"/><use transform="matrix(0.009765625,0,0,0.009765625,12.001953125,0)" xlink:href="#bx"/><use transform="matrix(0.009765625,0,0,0.009765625,24.00390625,0)" xlink:href="#bK"/><use transform="matrix(0.009765625,0,0,0.009765625,36.005859375,0)" xlink:href="#bJ"/><use transform="matrix(0.009765625,0,0,0.009765625,48.0078125,0)" xlink:href="#bH"/><use transform="matrix(0.009765625,0,0,0.009765625,60.009765625,0)" xlink:href="#bO"/></g><path fill="#3a414a" d="M194-120c59 52 2 134-86 124-53-6-90-18-98-63l31-7c8 30 29 43 70 43 46 0 84-17 71-62-32-43-135-20-137-98-3-89 178-90 191-16l-30 9c-8-48-127-53-127 5 0 53 81 35 115 65" id="bP"/><path fill="#3a414a" d="M67-162c32-53 139-36 121 50C175-51 163 2 97 4 68 4 52-11 42-31 38 6 28 39 22 75H-9l50-265h29c-1 10 0 20-3 28zm89 36c0-26-10-43-35-43-54 0-67 50-69 103-1 29 14 45 42 46 53 0 62-58 62-106" id="bQ"/><path fill="#3a414a" d="M44-68c0 29 11 47 38 47 30 0 42-19 51-41l28 9C148-21 126 4 82 4 31 4 10-29 12-85c3-77 74-140 146-93 12 8 15 23 18 40l-31 5c-1-22-13-36-36-36-52 0-65 49-65 101" id="bR"/><path fill="#3a414a" d="M111-194c62-3 86 47 72 106H45c-7 38 6 69 45 68 27-1 43-14 53-32l24 11C152-15 129 4 87 4 38 3 12-23 12-71c0-70 32-119 99-123zm44 81c14-66-71-72-95-28-4 8-8 17-11 28h106" id="bS"/><g id="K"><use transform="matrix(0.06172839506172839,0,0,0.06172839506172839,0,0)" xlink:href="#aR"/><use transform="matrix(0.06172839506172839,0,0,0.06172839506172839,7.8395061728395055,0)" xlink:href="#bP"/><use transform="matrix(0.06172839506172839,0,0,0.06172839506172839,22.65432098765432,0)" xlink:href="#bQ"/><use transform="matrix(0.06172839506172839,0,0,0.06172839506172839,35,0)" xlink:href="#aT"/><use transform="matrix(0.06172839506172839,0,0,0.06172839506172839,47.34567901234568,0)" xlink:href="#bR"/><use transform="matrix(0.06172839506172839,0,0,0.06172839506172839,58.456790123456784,0)" xlink:href="#bS"/><use transform="matrix(0.06172839506172839,0,0,0.06172839506172839,70.80246913580247,0)" xlink:href="#aR"/></g><path fill="#3a414a" d="M202-1349h823v156H709v1037h316V0H202v-156h316v-1037H202v-156" id="bT"/><g id="L"><use transform="matrix(0.009765625,0,0,0.009765625,0,0)" xlink:href="#bT"/><use transform="matrix(0.009765625,0,0,0.009765625,12.001953125,0)" xlink:href="#bv"/><use transform="matrix(0.009765625,0,0,0.009765625,24.00390625,0)" xlink:href="#br"/><use transform="matrix(0.009765625,0,0,0.009765625,36.005859375,0)" xlink:href="#bl"/><use transform="matrix(0.009765625,0,0,0.009765625,48.0078125,0)" xlink:href="#bi"/><use transform="matrix(0.009765625,0,0,0.009765625,60.009765625,0)" xlink:href="#bt"/></g><g id="M"><use transform="matrix(0.009765625,0,0,0.009765625,0,0)" xlink:href="#bO"/><use transform="matrix(0.009765625,0,0,0.009765625,12.001953125,0)" xlink:href="#bj"/><use transform="matrix(0.009765625,0,0,0.009765625,24.00390625,0)" xlink:href="#bi"/><use transform="matrix(0.009765625,0,0,0.009765625,36.005859375,0)" xlink:href="#bI"/><use transform="matrix(0.009765625,0,0,0.009765625,48.0078125,0)" xlink:href="#bn"/><use transform="matrix(0.009765625,0,0,0.009765625,60.009765625,0)" xlink:href="#bF"/></g><g id="N"><use transform="matrix(0.009765625,0,0,0.009765625,0,0)" xlink:href="#bf"/><use transform="matrix(0.009765625,0,0,0.009765625,12.001953125,0)" xlink:href="#bo"/><use transform="matrix(0.009765625,0,0,0.009765625,24.00390625,0)" xlink:href="#bt"/><use transform="matrix(0.009765625,0,0,0.009765625,36.005859375,0)" xlink:href="#bs"/><use transform="matrix(0.009765625,0,0,0.009765625,48.0078125,0)" xlink:href="#bI"/><use transform="matrix(0.009765625,0,0,0.009765625,60.009765625,0)" xlink:href="#bn"/><use transform="matrix(0.009765625,0,0,0.009765625,72.01171875,0)" xlink:href="#bt"/><use transform="matrix(0.009765625,0,0,0.009765625,84.013671875,0)" xlink:href="#bs"/><use transform="matrix(0.009765625,0,0,0.009765625,96.015625,0)" xlink:href="#bj"/><use transform="matrix(0.009765625,0,0,0.009765625,108.017578125,0)" xlink:href="#bv"/></g><g id="O"><use transform="matrix(0.009765625,0,0,0.009765625,0,0)" xlink:href="#bJ"/><use transform="matrix(0.009765625,0,0,0.009765625,12.001953125,0)" xlink:href="#bj"/><use transform="matrix(0.009765625,0,0,0.009765625,24.00390625,0)" xlink:href="#bv"/><use transform="matrix(0.009765625,0,0,0.009765625,36.005859375,0)" xlink:href="#br"/><use transform="matrix(0.009765625,0,0,0.009765625,48.0078125,0)" xlink:href="#bl"/><use transform="matrix(0.009765625,0,0,0.009765625,60.009765625,0)" xlink:href="#bA"/></g><path fill="#3a414a" d="M875 0v-623H353V0H162v-1349h191v566h522v-566h191V0H875" id="bU"/><g id="P"><use transform="matrix(0.009765625,0,0,0.009765625,0,0)" xlink:href="#bU"/><use transform="matrix(0.009765625,0,0,0.009765625,12.001953125,0)" xlink:href="#by"/><use transform="matrix(0.009765625,0,0,0.009765625,24.00390625,0)" xlink:href="#bF"/><use transform="matrix(0.009765625,0,0,0.009765625,36.005859375,0)" xlink:href="#bF"/></g><path fill="#3a414a" d="M839-1335c-182-6-269 67-259 253h491v142H580V0H400v-940H138v-142h262c-15-293 132-408 418-402 94 2 200 7 281 21v145c-75-10-177-14-260-17" id="bV"/><g id="Q"><use transform="matrix(0.009765625,0,0,0.009765625,0,0)" xlink:href="#bK"/><use transform="matrix(0.009765625,0,0,0.009765625,12.001953125,0)" xlink:href="#by"/><use transform="matrix(0.009765625,0,0,0.009765625,24.00390625,0)" xlink:href="#bi"/><use transform="matrix(0.009765625,0,0,0.009765625,36.005859375,0)" xlink:href="#bV"/><use transform="matrix(0.009765625,0,0,0.009765625,48.0078125,0)" xlink:href="#bn"/><use transform="matrix(0.009765625,0,0,0.009765625,60.009765625,0)" xlink:href="#bq"/><use transform="matrix(0.009765625,0,0,0.009765625,72.01171875,0)" xlink:href="#bl"/></g><path fill="#3a414a" d="M1121-976c0 225-142 341-344 379L1177 0H957L591-575H353V0H162v-1349h482c281 3 477 100 477 373zM633-726c181-1 296-73 296-247 0-149-101-223-304-223H353v470h280" id="bW"/><g id="R"><use transform="matrix(0.009765625,0,0,0.009765625,0,0)" xlink:href="#bW"/><use transform="matrix(0.009765625,0,0,0.009765625,12.001953125,0)" xlink:href="#bl"/><use transform="matrix(0.009765625,0,0,0.009765625,24.00390625,0)" xlink:href="#bq"/><use transform="matrix(0.009765625,0,0,0.009765625,36.005859375,0)" xlink:href="#bj"/><use transform="matrix(0.009765625,0,0,0.009765625,48.0078125,0)" xlink:href="#bv"/><use transform="matrix(0.009765625,0,0,0.009765625,60.009765625,0)" xlink:href="#bo"/><use transform="matrix(0.009765625,0,0,0.009765625,72.01171875,0)" xlink:href="#bt"/><use transform="matrix(0.009765625,0,0,0.009765625,84.013671875,0)" xlink:href="#bi"/><use transform="matrix(0.009765625,0,0,0.009765625,96.015625,0)" xlink:href="#by"/><use transform="matrix(0.009765625,0,0,0.009765625,108.017578125,0)" xlink:href="#bq"/><use transform="matrix(0.009765625,0,0,0.009765625,120.01953125,0)" xlink:href="#bt"/><use transform="matrix(0.009765625,0,0,0.009765625,132.021484375,0)" xlink:href="#bs"/><use transform="matrix(0.009765625,0,0,0.009765625,144.0234375,0)" xlink:href="#bj"/><use transform="matrix(0.009765625,0,0,0.009765625,156.025390625,0)" xlink:href="#bv"/></g><path fill="#3a414a" d="M14 0l48-248h34L48 0H14" id="bX"/><path fill="#3a414a" d="M67-158c22-48 132-52 116 29L158 0h-32l25-140c3-38-53-32-70-12C52-117 51-52 38 0H6l36-190h30" id="bY"/><path fill="#3a414a" d="M66-151c12-25 30-51 66-40l-6 26C45-176 58-65 38 0H6l36-190h30" id="bZ"/><g id="S"><use transform="matrix(0.06172839506172839,0,0,0.06172839506172839,0,0)" xlink:href="#aR"/><use transform="matrix(0.06172839506172839,0,0,0.06172839506172839,7.8395061728395055,0)" xlink:href="#bX"/><use transform="matrix(0.06172839506172839,0,0,0.06172839506172839,14.012345679012345,0)" xlink:href="#bY"/><use transform="matrix(0.06172839506172839,0,0,0.06172839506172839,26.358024691358025,0)" xlink:href="#bY"/><use transform="matrix(0.06172839506172839,0,0,0.06172839506172839,38.7037037037037,0)" xlink:href="#bS"/><use transform="matrix(0.06172839506172839,0,0,0.06172839506172839,51.04938271604938,0)" xlink:href="#bZ"/></g><path fill="#3a414a" d="M67 3c-93-2-31-127-26-193h32L48-50c-3 39 53 32 70 12 30-34 30-101 43-152h32L157 0h-30c1-10 6-24 4-33-14 20-29 37-64 36" id="ca"/><path fill="#3a414a" d="M76-167L44 0H12l33-167H18l4-23h27c3-47 25-81 82-69l-4 24c-35-8-44 15-46 45h37l-5 23H76" id="cb"/><g id="T"><use transform="matrix(0.06172839506172839,0,0,0.06172839506172839,0,0)" xlink:href="#bP"/><use transform="matrix(0.06172839506172839,0,0,0.06172839506172839,14.814814814814813,0)" xlink:href="#ca"/><use transform="matrix(0.06172839506172839,0,0,0.06172839506172839,27.160493827160494,0)" xlink:href="#bZ"/><use transform="matrix(0.06172839506172839,0,0,0.06172839506172839,34.50617283950617,0)" xlink:href="#cb"/><use transform="matrix(0.06172839506172839,0,0,0.06172839506172839,40.67901234567901,0)" xlink:href="#aT"/><use transform="matrix(0.06172839506172839,0,0,0.06172839506172839,53.02469135802469,0)" xlink:href="#bR"/><use transform="matrix(0.06172839506172839,0,0,0.06172839506172839,64.1358024691358,0)" xlink:href="#bS"/><use transform="matrix(0.06172839506172839,0,0,0.06172839506172839,76.48148148148148,0)" xlink:href="#aR"/></g><path fill="#3a414a" d="M185-189c-5-48-123-54-124 2 14 75 158 14 163 119 3 78-121 87-175 55-17-10-28-26-33-46l33-7c5 56 141 63 141-1 0-78-155-14-162-118-5-82 145-84 179-34 5 7 8 16 11 25" id="cc"/><g id="U"><use transform="matrix(0.06172839506172839,0,0,0.06172839506172839,0,0)" xlink:href="#cc"/><use transform="matrix(0.06172839506172839,0,0,0.06172839506172839,14.814814814814813,0)" xlink:href="#at"/><use transform="matrix(0.06172839506172839,0,0,0.06172839506172839,33.2716049382716,0)" xlink:href="#ak"/><use transform="matrix(0.06172839506172839,0,0,0.06172839506172839,45.61728395061728,0)" xlink:href="#ak"/><use transform="matrix(0.06172839506172839,0,0,0.06172839506172839,57.962962962962955,0)" xlink:href="#am"/><use transform="matrix(0.06172839506172839,0,0,0.06172839506172839,64.1358024691358,0)" xlink:href="#an"/></g><path fill="#3a414a" d="M121-226c-27-7-43 5-38 36h38v33H83V0H34v-157H6v-33h28c-9-59 32-81 87-68v32" id="cd"/><g id="V"><use transform="matrix(0.06172839506172839,0,0,0.06172839506172839,0,0)" xlink:href="#ag"/><use transform="matrix(0.06172839506172839,0,0,0.06172839506172839,14.814814814814813,0)" xlink:href="#ai"/><use transform="matrix(0.06172839506172839,0,0,0.06172839506172839,28.33333333333333,0)" xlink:href="#ah"/><use transform="matrix(0.06172839506172839,0,0,0.06172839506172839,36.9753086419753,0)" xlink:href="#cd"/><use transform="matrix(0.06172839506172839,0,0,0.06172839506172839,44.32098765432098,0)" xlink:href="#aJ"/><use transform="matrix(0.06172839506172839,0,0,0.06172839506172839,56.66666666666666,0)" xlink:href="#af"/><use transform="matrix(0.06172839506172839,0,0,0.06172839506172839,69.01234567901234,0)" xlink:href="#aj"/></g><path fill="#cc4e00" d="M52-101C46-14 166-7 216-51l9-45h-74l6-28h105l-18 87C217-12 181 4 130 4 60 4 18-31 18-101c0-106 78-167 188-146 30 6 48 27 59 54l-34 9c-10-26-31-41-67-40-75 1-107 50-112 123" id="ce"/><path fill="#cc4e00" d="M111-194c62-3 86 47 72 106H45c-7 38 6 69 45 68 27-1 43-14 53-32l24 11C152-15 129 4 87 4 38 3 12-23 12-71c0-70 32-119 99-123zm44 81c14-66-71-72-95-28-4 8-8 17-11 28h106" id="cf"/><path fill="#cc4e00" d="M67-158c22-48 132-52 116 29L158 0h-32l25-140c3-38-53-32-70-12C52-117 51-52 38 0H6l36-190h30" id="cg"/><path fill="#cc4e00" d="M66-151c12-25 30-51 66-40l-6 26C45-176 58-65 38 0H6l36-190h30" id="ch"/><path fill="#cc4e00" d="M165-48c-4 18 1 34 23 27l-3 20c-29 8-62 0-52-35h-2C116-14 99 4 63 4 30 4 8-16 8-49c0-68 71-67 138-67 10-26 0-56-31-54-26 1-42 9-47 31l-32-5c8-67 160-71 144 15-5 28-9 54-15 81zM42-50c3 52 80 24 89-6 7-12 7-24 11-38-47 1-103-4-100 44" id="ci"/><path fill="#cc4e00" d="M6 0l50-261h32L37 0H6" id="cj"/><g id="W"><use transform="matrix(0.08641975308641973,0,0,0.08641975308641973,0,0)" xlink:href="#ce"/><use transform="matrix(0.08641975308641973,0,0,0.08641975308641973,24.197530864197525,0)" xlink:href="#cf"/><use transform="matrix(0.08641975308641973,0,0,0.08641975308641973,41.48148148148147,0)" xlink:href="#cg"/><use transform="matrix(0.08641975308641973,0,0,0.08641975308641973,58.765432098765416,0)" xlink:href="#cf"/><use transform="matrix(0.08641975308641973,0,0,0.08641975308641973,76.04938271604937,0)" xlink:href="#ch"/><use transform="matrix(0.08641975308641973,0,0,0.08641975308641973,86.33333333333331,0)" xlink:href="#ci"/><use transform="matrix(0.08641975308641973,0,0,0.08641975308641973,103.61728395061726,0)" xlink:href="#cj"/></g><path fill="#cc4e00" d="M238-179c0 84-86 86-175 82L45 0H11l48-248c82 0 179-12 179 69zm-34 1c0-53-64-42-116-43l-19 98c63 0 135 9 135-55" id="ck"/><path fill="#cc4e00" d="M30-147c31-64 166-65 159 27C183-49 158 1 86 4 9 8 1-88 30-147zM88-20c53 0 68-48 68-100 0-31-11-51-44-50-52 1-68 46-68 97 0 32 13 53 44 53" id="cl"/><path fill="#cc4e00" d="M50-231l6-30h32l-6 30H50zM6 0l37-190h31L37 0H6" id="cm"/><path fill="#cc4e00" d="M51-54c-9 22 5 41 31 30L79-1C43 14 10-4 19-52l22-115H19l5-23h22l19-43h21l-9 43h35l-4 23H73" id="cn"/><path fill="#cc4e00" d="M44-68c0 29 11 47 38 47 30 0 42-19 51-41l28 9C148-21 126 4 82 4 31 4 10-29 12-85c3-77 74-140 146-93 12 8 15 23 18 40l-31 5c-1-22-13-36-36-36-52 0-65 49-65 101" id="co"/><path fill="#cc4e00" d="M67 3c-93-2-31-127-26-193h32L48-50c-3 39 53 32 70 12 30-34 30-101 43-152h32L157 0h-30c1-10 6-24 4-33-14 20-29 37-64 36" id="cp"/><path fill="#cc4e00" d="M133-28C103 26-5 8 13-77c13-62 24-115 90-117 29-1 46 15 56 35l19-102h32L160 0h-30zM45-64c-2 27 10 43 35 43 54-1 69-50 69-103 0-29-15-46-42-46-53-1-58 58-62 106" id="cq"/><g id="X"><use transform="matrix(0.08641975308641973,0,0,0.08641975308641973,0,0)" xlink:href="#ck"/><use transform="matrix(0.08641975308641973,0,0,0.08641975308641973,20.740740740740737,0)" xlink:href="#cl"/><use transform="matrix(0.08641975308641973,0,0,0.08641975308641973,38.02469135802468,0)" xlink:href="#cm"/><use transform="matrix(0.08641975308641973,0,0,0.08641975308641973,44.85185185185184,0)" xlink:href="#cg"/><use transform="matrix(0.08641975308641973,0,0,0.08641975308641973,62.13580246913578,0)" xlink:href="#cn"/><use transform="matrix(0.08641975308641973,0,0,0.08641975308641973,70.77777777777776,0)" xlink:href="#co"/><use transform="matrix(0.08641975308641973,0,0,0.08641975308641973,86.33333333333331,0)" xlink:href="#cj"/><use transform="matrix(0.08641975308641973,0,0,0.08641975308641973,93.16049382716048,0)" xlink:href="#cl"/><use transform="matrix(0.08641975308641973,0,0,0.08641975308641973,110.44444444444441,0)" xlink:href="#cp"/><use transform="matrix(0.08641975308641973,0,0,0.08641975308641973,127.72839506172839,0)" xlink:href="#cq"/></g><path fill="#54c45e" d="M249-183c0 48-29 72-75 77L221 0h-36l-43-103H65L45 0H11l48-248c83 2 190-17 190 65zm-34 3c0-55-74-39-127-41l-18 92c63-1 145 13 145-51" id="cr"/><path fill="#54c45e" d="M50-231l6-30h32l-6 30H50zM6 0l37-190h31L37 0H6" id="cs"/><path fill="#54c45e" d="M68-162c25-46 127-43 121 31C183-60 169 1 98 4 69 5 53-11 43-31L36 0H5l52-261h31zm88 36c2-27-9-43-34-43-55 0-70 51-70 103 0 29 15 45 43 46 52 0 58-58 61-106" id="ct"/><path fill="#54c45e" d="M30-147c31-64 166-65 159 27C183-49 158 1 86 4 9 8 1-88 30-147zM88-20c53 0 68-48 68-100 0-31-11-51-44-50-52 1-68 46-68 97 0 32 13 53 44 53" id="cu"/><path fill="#54c45e" d="M55-144c13 50 104 24 104 88C159 21 15 23 1-39l26-10c6 40 102 42 102-4-13-50-104-23-104-87 0-71 143-71 148-8l-29 4c-5-35-85-37-89 0" id="cv"/><path fill="#54c45e" d="M248-111c6-24 9-61-24-58-72 9-57 108-77 169h-31l26-142c3-37-50-30-64-10C52-115 50-51 37 0H6l36-190h30c-1 10-6 24-4 32 13-43 101-52 105 5 13-22 29-41 61-41 90 0 28 129 23 194h-31" id="cw"/><path fill="#54c45e" d="M111-194c62-3 86 47 72 106H45c-7 38 6 69 45 68 27-1 43-14 53-32l24 11C152-15 129 4 87 4 38 3 12-23 12-71c0-70 32-119 99-123zm44 81c14-66-71-72-95-28-4 8-8 17-11 28h106" id="cx"/><path fill="#54c45e" d="M18-82l6-28h88l-6 28H18" id="cy"/><path fill="#54c45e" d="M194-120c59 52 2 134-86 124-53-6-90-18-98-63l31-7c8 30 29 43 70 43 46 0 84-17 71-62-32-43-135-20-137-98-3-89 178-90 191-16l-30 9c-8-48-127-53-127 5 0 53 81 35 115 65" id="cz"/><path fill="#54c45e" d="M67-162c32-53 139-36 121 50C175-51 163 2 97 4 68 4 52-11 42-31 38 6 28 39 22 75H-9l50-265h29c-1 10 0 20-3 28zm89 36c0-26-10-43-35-43-54 0-67 50-69 103-1 29 14 45 42 46 53 0 62-58 62-106" id="cA"/><path fill="#54c45e" d="M44-68c0 29 11 47 38 47 30 0 42-19 51-41l28 9C148-21 126 4 82 4 31 4 10-29 12-85c3-77 74-140 146-93 12 8 15 23 18 40l-31 5c-1-22-13-36-36-36-52 0-65 49-65 101" id="cB"/><path fill="#54c45e" d="M76-167L44 0H12l33-167H18l4-23h27c3-47 25-81 82-69l-4 24c-35-8-44 15-46 45h37l-5 23H76" id="cC"/><g id="Y"><use transform="matrix(0.08641975308641973,0,0,0.08641975308641973,0,0)" xlink:href="#cr"/><use transform="matrix(0.08641975308641973,0,0,0.08641975308641973,22.38271604938271,0)" xlink:href="#cs"/><use transform="matrix(0.08641975308641973,0,0,0.08641975308641973,29.20987654320987,0)" xlink:href="#ct"/><use transform="matrix(0.08641975308641973,0,0,0.08641975308641973,46.493827160493815,0)" xlink:href="#cu"/><use transform="matrix(0.08641975308641973,0,0,0.08641975308641973,63.77777777777776,0)" xlink:href="#cv"/><use transform="matrix(0.08641975308641973,0,0,0.08641975308641973,79.33333333333331,0)" xlink:href="#cu"/><use transform="matrix(0.08641975308641973,0,0,0.08641975308641973,96.61728395061726,0)" xlink:href="#cw"/><use transform="matrix(0.08641975308641973,0,0,0.08641975308641973,122.45679012345677,0)" xlink:href="#cx"/><use transform="matrix(0.08641975308641973,0,0,0.08641975308641973,139.7407407407407,0)" xlink:href="#cy"/><use transform="matrix(0.08641975308641973,0,0,0.08641975308641973,150.02469135802465,0)" xlink:href="#cz"/><use transform="matrix(0.08641975308641973,0,0,0.08641975308641973,170.7654320987654,0)" xlink:href="#cA"/><use transform="matrix(0.08641975308641973,0,0,0.08641975308641973,188.04938271604934,0)" xlink:href="#cx"/><use transform="matrix(0.08641975308641973,0,0,0.08641975308641973,205.3333333333333,0)" xlink:href="#cB"/><use transform="matrix(0.08641975308641973,0,0,0.08641975308641973,220.88888888888883,0)" xlink:href="#cs"/><use transform="matrix(0.08641975308641973,0,0,0.08641975308641973,227.716049382716,0)" xlink:href="#cC"/><use transform="matrix(0.08641975308641973,0,0,0.08641975308641973,236.35802469135797,0)" xlink:href="#cs"/><use transform="matrix(0.08641975308641973,0,0,0.08641975308641973,243.18518518518513,0)" xlink:href="#cB"/></g></defs></g></svg>